<svg width="353" height="353" viewBox="0 0 353 353" fill="none" xmlns="http://www.w3.org/2000/svg">
<rect x="1" y="1" width="153.553" height="153.553" stroke="white" stroke-width="2"/>
<rect x="198.445" y="1" width="153.553" height="153.553" stroke="white" stroke-width="2"/>
<rect x="1" y="198.449" width="153.553" height="153.553" stroke="white" stroke-width="2"/>
<rect x="198.445" y="198.449" width="153.553" height="153.553" stroke="white" stroke-width="2"/>
<path d="M194.023 78.6937C194.414 78.3032 194.414 77.67 194.023 77.2795L187.659 70.9155C187.269 70.525 186.636 70.525 186.245 70.9155C185.855 71.306 185.855 71.9392 186.245 72.3297L191.902 77.9866L186.245 83.6434C185.855 84.034 185.855 84.6671 186.245 85.0576C186.636 85.4482 187.269 85.4482 187.659 85.0576L194.023 78.6937ZM159.266 78.9866L160.211 78.9866L160.211 76.9866L159.266 76.9866L159.266 78.9866ZM162.103 78.9866L163.995 78.9866L163.995 76.9866L162.103 76.9866L162.103 78.9866ZM165.887 78.9866L167.778 78.9866L167.778 76.9866L165.887 76.9866L165.887 78.9866ZM169.67 78.9866L171.562 78.9866L171.562 76.9866L169.67 76.9866L169.67 78.9866ZM173.453 78.9866L175.345 78.9866L175.345 76.9866L173.453 76.9866L173.453 78.9866ZM177.237 78.9866L179.128 78.9866L179.128 76.9866L177.237 76.9866L177.237 78.9866ZM181.02 78.9866L182.912 78.9866L182.912 76.9866L181.02 76.9866L181.02 78.9866ZM184.803 78.9866L186.695 78.9866L186.695 76.9866L184.803 76.9866L184.803 78.9866ZM188.587 78.9866L190.479 78.9866L190.479 76.9866L188.587 76.9866L188.587 78.9866ZM192.37 78.9866L193.316 78.9866L193.316 76.9866L192.37 76.9866L192.37 78.9866ZM194.023 78.6937C194.414 78.3032 194.414 77.67 194.023 77.2795L187.659 70.9155C187.269 70.525 186.636 70.525 186.245 70.9155C185.855 71.306 185.855 71.9392 186.245 72.3297L191.902 77.9866L186.245 83.6434C185.855 84.034 185.855 84.6671 186.245 85.0576C186.636 85.4482 187.269 85.4482 187.659 85.0576L194.023 78.6937ZM159.266 78.9866L160.211 78.9866L160.211 76.9866L159.266 76.9866L159.266 78.9866ZM162.103 78.9866L163.995 78.9866L163.995 76.9866L162.103 76.9866L162.103 78.9866ZM165.887 78.9866L167.778 78.9866L167.778 76.9866L165.887 76.9866L165.887 78.9866ZM169.67 78.9866L171.562 78.9866L171.562 76.9866L169.67 76.9866L169.67 78.9866ZM173.453 78.9866L175.345 78.9866L175.345 76.9866L173.453 76.9866L173.453 78.9866ZM177.237 78.9866L179.128 78.9866L179.128 76.9866L177.237 76.9866L177.237 78.9866ZM181.02 78.9866L182.912 78.9866L182.912 76.9866L181.02 76.9866L181.02 78.9866ZM184.803 78.9866L186.695 78.9866L186.695 76.9866L184.803 76.9866L184.803 78.9866ZM188.587 78.9866L190.479 78.9866L190.479 76.9866L188.587 76.9866L188.587 78.9866ZM192.37 78.9866L193.316 78.9866L193.316 76.9866L192.37 76.9866L192.37 78.9866Z" fill="white"/>
<path d="M194.023 275.308C194.414 274.917 194.414 274.284 194.023 273.894L187.659 267.53C187.269 267.139 186.636 267.139 186.245 267.53C185.855 267.92 185.855 268.553 186.245 268.944L191.902 274.601L186.245 280.258C185.855 280.648 185.855 281.281 186.245 281.672C186.636 282.062 187.269 282.062 187.659 281.672L194.023 275.308ZM159.266 275.601L160.211 275.601L160.211 273.601L159.266 273.601L159.266 275.601ZM162.103 275.601L163.995 275.601L163.995 273.601L162.103 273.601L162.103 275.601ZM165.887 275.601L167.778 275.601L167.778 273.601L165.887 273.601L165.887 275.601ZM169.67 275.601L171.562 275.601L171.562 273.601L169.67 273.601L169.67 275.601ZM173.453 275.601L175.345 275.601L175.345 273.601L173.453 273.601L173.453 275.601ZM177.237 275.601L179.128 275.601L179.128 273.601L177.237 273.601L177.237 275.601ZM181.02 275.601L182.912 275.601L182.912 273.601L181.02 273.601L181.02 275.601ZM184.803 275.601L186.695 275.601L186.695 273.601L184.803 273.601L184.803 275.601ZM188.587 275.601L190.479 275.601L190.479 273.601L188.587 273.601L188.587 275.601ZM192.37 275.601L193.316 275.601L193.316 273.601L192.37 273.601L192.37 275.601ZM194.023 275.308C194.414 274.917 194.414 274.284 194.023 273.894L187.659 267.53C187.269 267.139 186.636 267.139 186.245 267.53C185.855 267.92 185.855 268.553 186.245 268.944L191.902 274.601L186.245 280.258C185.855 280.648 185.855 281.281 186.245 281.672C186.636 282.062 187.269 282.062 187.659 281.672L194.023 275.308ZM159.266 275.601L160.211 275.601L160.211 273.601L159.266 273.601L159.266 275.601ZM162.103 275.601L163.995 275.601L163.995 273.601L162.103 273.601L162.103 275.601ZM165.887 275.601L167.778 275.601L167.778 273.601L165.887 273.601L165.887 275.601ZM169.67 275.601L171.562 275.601L171.562 273.601L169.67 273.601L169.67 275.601ZM173.453 275.601L175.345 275.601L175.345 273.601L173.453 273.601L173.453 275.601ZM177.237 275.601L179.128 275.601L179.128 273.601L177.237 273.601L177.237 275.601ZM181.02 275.601L182.912 275.601L182.912 273.601L181.02 273.601L181.02 275.601ZM184.803 275.601L186.695 275.601L186.695 273.601L184.803 273.601L184.803 275.601ZM188.587 275.601L190.479 275.601L190.479 273.601L188.587 273.601L188.587 275.601ZM192.37 275.601L193.316 275.601L193.316 273.601L192.37 273.601L192.37 275.601Z" fill="white"/>
<path d="M158.27 193.319C158.27 193.871 158.718 194.319 159.27 194.319H168.27C168.822 194.319 169.27 193.871 169.27 193.319C169.27 192.767 168.822 192.319 168.27 192.319H160.27V184.319C160.27 183.767 159.822 183.319 159.27 183.319C158.718 183.319 158.27 183.767 158.27 184.319V193.319ZM192.613 158.561L191.904 159.271L193.318 160.685L194.027 159.975L192.613 158.561ZM190.485 160.689L189.066 162.108L190.48 163.522L191.899 162.104L190.485 160.689ZM187.648 163.527L186.229 164.946L187.643 166.36L189.062 164.941L187.648 163.527ZM184.81 166.364L183.391 167.783L184.805 169.197L186.224 167.779L184.81 166.364ZM181.972 169.202L180.554 170.621L181.968 172.035L183.387 170.616L181.972 169.202ZM179.135 172.04L177.716 173.458L179.13 174.873L180.549 173.454L179.135 172.04ZM176.297 174.877L174.879 176.296L176.293 177.71L177.712 176.291L176.297 174.877ZM173.46 177.715L172.041 179.133L173.455 180.548L174.874 179.129L173.46 177.715ZM170.622 180.552L169.204 181.971L170.618 183.385L172.036 181.966L170.622 180.552ZM167.785 183.39L166.366 184.808L167.78 186.223L169.199 184.804L167.785 183.39ZM164.947 186.227L163.528 187.646L164.943 189.06L166.361 187.641L164.947 186.227ZM162.11 189.065L160.691 190.484L162.105 191.898L163.524 190.479L162.11 189.065ZM159.272 191.902L158.563 192.612L159.977 194.026L160.686 193.317L159.272 191.902ZM158.27 193.319C158.27 193.871 158.718 194.319 159.27 194.319H168.27C168.822 194.319 169.27 193.871 169.27 193.319C169.27 192.767 168.822 192.319 168.27 192.319H160.27V184.319C160.27 183.767 159.822 183.319 159.27 183.319C158.718 183.319 158.27 183.767 158.27 184.319V193.319ZM192.613 158.561L191.904 159.271L193.318 160.685L194.027 159.975L192.613 158.561ZM190.485 160.689L189.066 162.108L190.48 163.522L191.899 162.104L190.485 160.689ZM187.648 163.527L186.229 164.946L187.643 166.36L189.062 164.941L187.648 163.527ZM184.81 166.364L183.391 167.783L184.805 169.197L186.224 167.779L184.81 166.364ZM181.972 169.202L180.554 170.621L181.968 172.035L183.387 170.616L181.972 169.202ZM179.135 172.04L177.716 173.458L179.13 174.873L180.549 173.454L179.135 172.04ZM176.297 174.877L174.879 176.296L176.293 177.71L177.712 176.291L176.297 174.877ZM173.46 177.715L172.041 179.133L173.455 180.548L174.874 179.129L173.46 177.715ZM170.622 180.552L169.204 181.971L170.618 183.385L172.036 181.966L170.622 180.552ZM167.785 183.39L166.366 184.808L167.78 186.223L169.199 184.804L167.785 183.39ZM164.947 186.227L163.528 187.646L164.943 189.06L166.361 187.641L164.947 186.227ZM162.11 189.065L160.691 190.484L162.105 191.898L163.524 190.479L162.11 189.065ZM159.272 191.902L158.563 192.612L159.977 194.026L160.686 193.317L159.272 191.902Z" fill="white"/>
<g clip-path="url(#clip0_162_1069)">
<path d="M89.4621 63.7577C91.1148 61.3933 92.079 58.5125 92.079 55.3906C92.079 47.2761 85.5024 40.6995 77.3878 40.6995C69.2733 40.6995 62.6967 47.2761 62.6967 55.3906C62.6967 58.5125 63.6608 61.3933 65.3135 63.7577C65.7382 64.366 66.2432 65.0546 66.7826 65.7892C68.2632 67.8207 70.0308 70.2539 71.3507 72.6527C72.5443 74.8334 73.1526 77.106 73.451 79.2522L67.8615 79.2637C67.609 77.8864 67.1844 76.5436 66.5072 75.304C65.3709 73.2381 63.9592 71.2984 62.5475 69.3587C61.9506 68.5438 61.3538 67.7289 60.7799 66.9025C58.5189 63.6429 57.1875 59.6717 57.1875 55.3906C57.1875 44.2345 66.2317 35.1903 77.3878 35.1903C88.5439 35.1903 97.5881 44.2345 97.5881 55.3906C97.5881 59.6717 96.2567 63.6429 93.9842 66.9025C93.4103 67.7289 92.8135 68.5438 92.2167 69.3587C90.805 71.2869 89.3932 73.2266 88.257 75.304C87.5798 76.5436 87.1551 77.8864 86.9026 79.2637H81.3246C81.623 77.1174 82.2313 74.8334 83.425 72.6642C84.7449 70.2654 86.5124 67.8322 87.993 65.8007C88.5324 65.0661 89.0259 64.3775 89.4506 63.7692L89.4621 63.7577ZM77.3878 49.8814C74.3463 49.8814 71.8786 52.3491 71.8786 55.3906C71.8786 56.4006 71.0523 57.227 70.0422 57.227C69.0322 57.227 68.2059 56.4006 68.2059 55.3906C68.2059 50.3176 72.3148 46.2087 77.3878 46.2087C78.3978 46.2087 79.2242 47.035 79.2242 48.0451C79.2242 49.0551 78.3978 49.8814 77.3878 49.8814ZM77.3878 93.9549C72.3148 93.9549 68.2059 89.8459 68.2059 84.7729V82.9365H86.5698V84.7729C86.5698 89.8459 82.4608 93.9549 77.3878 93.9549Z" fill="white"/>
</g>
<path d="M50.0029 112.515V116.158C49.8799 116.341 49.6839 116.546 49.415 116.774C49.1462 116.997 48.7747 117.193 48.3008 117.362C47.8314 117.526 47.2253 117.608 46.4824 117.608C45.8763 117.608 45.318 117.503 44.8076 117.293C44.3018 117.079 43.862 116.769 43.4883 116.364C43.1191 115.953 42.832 115.457 42.627 114.873C42.4264 114.285 42.3262 113.62 42.3262 112.877V112.105C42.3262 111.362 42.4128 110.699 42.5859 110.115C42.7637 109.532 43.0234 109.038 43.3652 108.632C43.707 108.222 44.1263 107.912 44.623 107.702C45.1198 107.488 45.6895 107.381 46.332 107.381C47.0931 107.381 47.7288 107.513 48.2393 107.778C48.7542 108.037 49.1553 108.397 49.4424 108.858C49.734 109.318 49.9209 109.842 50.0029 110.43H48.6836C48.6243 110.07 48.5059 109.742 48.3281 109.446C48.1549 109.149 47.9066 108.912 47.583 108.735C47.2594 108.552 46.8424 108.461 46.332 108.461C45.8717 108.461 45.473 108.545 45.1357 108.714C44.7985 108.883 44.5205 109.124 44.3018 109.439C44.083 109.753 43.9189 110.134 43.8096 110.58C43.7048 111.027 43.6523 111.531 43.6523 112.091V112.877C43.6523 113.451 43.7184 113.964 43.8506 114.415C43.9873 114.866 44.181 115.252 44.4316 115.571C44.6823 115.885 44.9808 116.124 45.3271 116.288C45.6781 116.452 46.0654 116.534 46.4893 116.534C46.9587 116.534 47.3392 116.496 47.6309 116.418C47.9225 116.336 48.1504 116.24 48.3145 116.131C48.4785 116.017 48.6038 115.91 48.6904 115.81V113.581H46.3867V112.515H50.0029ZM53.2637 111.237V117.471H51.999V110.074H53.2295L53.2637 111.237ZM55.5742 110.033L55.5674 111.209C55.4626 111.186 55.3623 111.173 55.2666 111.168C55.1755 111.159 55.0706 111.155 54.9521 111.155C54.6605 111.155 54.403 111.2 54.1797 111.291C53.9564 111.382 53.7673 111.51 53.6123 111.674C53.4574 111.838 53.3343 112.034 53.2432 112.262C53.1566 112.485 53.0996 112.731 53.0723 113L52.7168 113.205C52.7168 112.759 52.7601 112.339 52.8467 111.948C52.9378 111.556 53.0768 111.209 53.2637 110.908C53.4505 110.603 53.6875 110.366 53.9746 110.198C54.2663 110.024 54.6126 109.938 55.0137 109.938C55.1048 109.938 55.2096 109.949 55.3281 109.972C55.4466 109.99 55.5286 110.011 55.5742 110.033ZM59.6758 117.608C59.1608 117.608 58.6937 117.521 58.2744 117.348C57.8597 117.17 57.502 116.922 57.2012 116.603C56.9049 116.284 56.6771 115.906 56.5176 115.468C56.3581 115.031 56.2783 114.552 56.2783 114.032V113.745C56.2783 113.144 56.3672 112.608 56.5449 112.139C56.7227 111.665 56.9642 111.264 57.2695 110.936C57.5749 110.608 57.9212 110.359 58.3086 110.191C58.696 110.022 59.097 109.938 59.5117 109.938C60.0404 109.938 60.4961 110.029 60.8789 110.211C61.2663 110.393 61.583 110.649 61.8291 110.977C62.0752 111.3 62.2575 111.683 62.376 112.125C62.4945 112.563 62.5537 113.041 62.5537 113.561V114.128H57.0303V113.096H61.2891V113C61.2708 112.672 61.2025 112.353 61.084 112.043C60.9701 111.733 60.7878 111.478 60.5371 111.278C60.2865 111.077 59.9447 110.977 59.5117 110.977C59.2246 110.977 58.9603 111.038 58.7188 111.161C58.4772 111.28 58.2699 111.458 58.0967 111.695C57.9235 111.932 57.7891 112.221 57.6934 112.563C57.5977 112.905 57.5498 113.299 57.5498 113.745V114.032C57.5498 114.383 57.5977 114.714 57.6934 115.024C57.7936 115.329 57.9372 115.598 58.124 115.83C58.3154 116.063 58.5456 116.245 58.8145 116.377C59.0879 116.509 59.3978 116.575 59.7441 116.575C60.1908 116.575 60.569 116.484 60.8789 116.302C61.1888 116.12 61.46 115.876 61.6924 115.571L62.458 116.179C62.2985 116.42 62.0957 116.651 61.8496 116.869C61.6035 117.088 61.3005 117.266 60.9404 117.403C60.585 117.539 60.1634 117.608 59.6758 117.608ZM68.3916 116.206V112.399C68.3916 112.107 68.3324 111.854 68.2139 111.64C68.0999 111.421 67.9268 111.253 67.6943 111.134C67.4619 111.016 67.1748 110.956 66.833 110.956C66.514 110.956 66.2337 111.011 65.9922 111.12C65.7552 111.23 65.5684 111.373 65.4316 111.551C65.2995 111.729 65.2334 111.92 65.2334 112.125H63.9688C63.9688 111.861 64.0371 111.599 64.1738 111.339C64.3105 111.079 64.5065 110.845 64.7617 110.635C65.0215 110.421 65.3314 110.252 65.6914 110.129C66.056 110.002 66.4616 109.938 66.9082 109.938C67.446 109.938 67.9199 110.029 68.3301 110.211C68.7448 110.393 69.0684 110.669 69.3008 111.038C69.5378 111.403 69.6562 111.861 69.6562 112.412V115.858C69.6562 116.104 69.6768 116.366 69.7178 116.644C69.7633 116.922 69.8294 117.161 69.916 117.362V117.471H68.5967C68.5329 117.325 68.4827 117.131 68.4463 116.89C68.4098 116.644 68.3916 116.416 68.3916 116.206ZM68.6104 112.987L68.624 113.875H67.3457C66.9857 113.875 66.6644 113.905 66.3818 113.964C66.0993 114.019 65.8623 114.103 65.6709 114.217C65.4795 114.331 65.3337 114.475 65.2334 114.648C65.1331 114.816 65.083 115.015 65.083 115.242C65.083 115.475 65.1354 115.687 65.2402 115.878C65.3451 116.07 65.5023 116.222 65.7119 116.336C65.9261 116.446 66.1882 116.5 66.498 116.5C66.8854 116.5 67.2272 116.418 67.5234 116.254C67.8197 116.09 68.0544 115.89 68.2275 115.653C68.4053 115.416 68.501 115.185 68.5146 114.962L69.0547 115.571C69.0228 115.762 68.9362 115.974 68.7949 116.206C68.6536 116.439 68.4645 116.662 68.2275 116.876C67.9951 117.086 67.7171 117.261 67.3936 117.403C67.0745 117.539 66.7145 117.608 66.3135 117.608C65.8122 117.608 65.3724 117.51 64.9941 117.314C64.6204 117.118 64.3288 116.856 64.1191 116.528C63.9141 116.195 63.8115 115.823 63.8115 115.413C63.8115 115.017 63.889 114.668 64.0439 114.367C64.1989 114.062 64.4222 113.809 64.7139 113.609C65.0055 113.404 65.3564 113.249 65.7666 113.144C66.1768 113.039 66.6348 112.987 67.1406 112.987H68.6104ZM74.7422 110.074V111.045H70.7432V110.074H74.7422ZM72.0967 108.277H73.3613V115.639C73.3613 115.89 73.4001 116.079 73.4775 116.206C73.555 116.334 73.6553 116.418 73.7783 116.459C73.9014 116.5 74.0335 116.521 74.1748 116.521C74.2796 116.521 74.389 116.512 74.5029 116.493C74.6214 116.471 74.7103 116.452 74.7695 116.439L74.7764 117.471C74.6761 117.503 74.5439 117.532 74.3799 117.56C74.2204 117.592 74.0267 117.608 73.7988 117.608C73.4889 117.608 73.2041 117.546 72.9443 117.423C72.6846 117.3 72.4772 117.095 72.3223 116.808C72.1719 116.516 72.0967 116.124 72.0967 115.632V108.277ZM81.3047 107.518V117.471H79.9854V107.518H81.3047ZM88.1748 116.035V106.971H89.4463V117.471H88.2842L88.1748 116.035ZM83.1982 113.855V113.711C83.1982 113.146 83.2666 112.633 83.4033 112.173C83.5446 111.708 83.7428 111.309 83.998 110.977C84.2578 110.644 84.5654 110.389 84.9209 110.211C85.2809 110.029 85.682 109.938 86.124 109.938C86.5889 109.938 86.9945 110.02 87.3408 110.184C87.6917 110.343 87.988 110.578 88.2295 110.888C88.4756 111.193 88.6693 111.562 88.8105 111.995C88.9518 112.428 89.0498 112.918 89.1045 113.465V114.094C89.0544 114.636 88.9564 115.124 88.8105 115.557C88.6693 115.99 88.4756 116.359 88.2295 116.664C87.988 116.97 87.6917 117.204 87.3408 117.368C86.9899 117.528 86.5798 117.608 86.1104 117.608C85.6774 117.608 85.2809 117.514 84.9209 117.327C84.5654 117.141 84.2578 116.878 83.998 116.541C83.7428 116.204 83.5446 115.808 83.4033 115.352C83.2666 114.892 83.1982 114.392 83.1982 113.855ZM84.4697 113.711V113.855C84.4697 114.224 84.5062 114.57 84.5791 114.894C84.6566 115.217 84.7751 115.502 84.9346 115.748C85.0941 115.994 85.2969 116.188 85.543 116.329C85.7891 116.466 86.083 116.534 86.4248 116.534C86.8441 116.534 87.1882 116.446 87.457 116.268C87.7305 116.09 87.9492 115.855 88.1133 115.564C88.2773 115.272 88.4049 114.955 88.4961 114.614V112.966C88.4414 112.715 88.3617 112.474 88.2568 112.241C88.1566 112.004 88.0244 111.795 87.8604 111.613C87.7008 111.426 87.5026 111.278 87.2656 111.168C87.0332 111.059 86.7575 111.004 86.4385 111.004C86.0921 111.004 85.7936 111.077 85.543 111.223C85.2969 111.364 85.0941 111.56 84.9346 111.811C84.7751 112.057 84.6566 112.344 84.5791 112.672C84.5062 112.996 84.4697 113.342 84.4697 113.711ZM94.4844 117.608C93.9694 117.608 93.5023 117.521 93.083 117.348C92.6683 117.17 92.3105 116.922 92.0098 116.603C91.7135 116.284 91.4857 115.906 91.3262 115.468C91.1667 115.031 91.0869 114.552 91.0869 114.032V113.745C91.0869 113.144 91.1758 112.608 91.3535 112.139C91.5312 111.665 91.7728 111.264 92.0781 110.936C92.3835 110.608 92.7298 110.359 93.1172 110.191C93.5046 110.022 93.9056 109.938 94.3203 109.938C94.849 109.938 95.3047 110.029 95.6875 110.211C96.0749 110.393 96.3916 110.649 96.6377 110.977C96.8838 111.3 97.0661 111.683 97.1846 112.125C97.3031 112.563 97.3623 113.041 97.3623 113.561V114.128H91.8389V113.096H96.0977V113C96.0794 112.672 96.0111 112.353 95.8926 112.043C95.7786 111.733 95.5964 111.478 95.3457 111.278C95.0951 111.077 94.7533 110.977 94.3203 110.977C94.0332 110.977 93.7689 111.038 93.5273 111.161C93.2858 111.28 93.0785 111.458 92.9053 111.695C92.7321 111.932 92.5977 112.221 92.502 112.563C92.4062 112.905 92.3584 113.299 92.3584 113.745V114.032C92.3584 114.383 92.4062 114.714 92.502 115.024C92.6022 115.329 92.7458 115.598 92.9326 115.83C93.124 116.063 93.3542 116.245 93.623 116.377C93.8965 116.509 94.2064 116.575 94.5527 116.575C94.9993 116.575 95.3776 116.484 95.6875 116.302C95.9974 116.12 96.2686 115.876 96.501 115.571L97.2666 116.179C97.1071 116.42 96.9043 116.651 96.6582 116.869C96.4121 117.088 96.109 117.266 95.749 117.403C95.3936 117.539 94.972 117.608 94.4844 117.608ZM103.2 116.206V112.399C103.2 112.107 103.141 111.854 103.022 111.64C102.909 111.421 102.735 111.253 102.503 111.134C102.271 111.016 101.983 110.956 101.642 110.956C101.323 110.956 101.042 111.011 100.801 111.12C100.564 111.23 100.377 111.373 100.24 111.551C100.108 111.729 100.042 111.92 100.042 112.125H98.7773C98.7773 111.861 98.8457 111.599 98.9824 111.339C99.1191 111.079 99.3151 110.845 99.5703 110.635C99.8301 110.421 100.14 110.252 100.5 110.129C100.865 110.002 101.27 109.938 101.717 109.938C102.255 109.938 102.729 110.029 103.139 110.211C103.553 110.393 103.877 110.669 104.109 111.038C104.346 111.403 104.465 111.861 104.465 112.412V115.858C104.465 116.104 104.485 116.366 104.526 116.644C104.572 116.922 104.638 117.161 104.725 117.362V117.471H103.405C103.341 117.325 103.291 117.131 103.255 116.89C103.218 116.644 103.2 116.416 103.2 116.206ZM103.419 112.987L103.433 113.875H102.154C101.794 113.875 101.473 113.905 101.19 113.964C100.908 114.019 100.671 114.103 100.479 114.217C100.288 114.331 100.142 114.475 100.042 114.648C99.9417 114.816 99.8916 115.015 99.8916 115.242C99.8916 115.475 99.944 115.687 100.049 115.878C100.154 116.07 100.311 116.222 100.521 116.336C100.735 116.446 100.997 116.5 101.307 116.5C101.694 116.5 102.036 116.418 102.332 116.254C102.628 116.09 102.863 115.89 103.036 115.653C103.214 115.416 103.31 115.185 103.323 114.962L103.863 115.571C103.831 115.762 103.745 115.974 103.604 116.206C103.462 116.439 103.273 116.662 103.036 116.876C102.804 117.086 102.526 117.261 102.202 117.403C101.883 117.539 101.523 117.608 101.122 117.608C100.621 117.608 100.181 117.51 99.8027 117.314C99.429 117.118 99.1374 116.856 98.9277 116.528C98.7227 116.195 98.6201 115.823 98.6201 115.413C98.6201 115.017 98.6976 114.668 98.8525 114.367C99.0075 114.062 99.2308 113.809 99.5225 113.609C99.8141 113.404 100.165 113.249 100.575 113.144C100.985 113.039 101.443 112.987 101.949 112.987H103.419ZM110.761 115.509C110.761 115.327 110.72 115.158 110.638 115.003C110.56 114.844 110.398 114.7 110.152 114.573C109.911 114.44 109.546 114.326 109.059 114.231C108.648 114.144 108.277 114.042 107.944 113.923C107.616 113.805 107.336 113.661 107.104 113.492C106.876 113.324 106.7 113.126 106.577 112.898C106.454 112.67 106.393 112.403 106.393 112.098C106.393 111.806 106.456 111.531 106.584 111.271C106.716 111.011 106.901 110.781 107.138 110.58C107.379 110.38 107.669 110.223 108.006 110.109C108.343 109.995 108.719 109.938 109.134 109.938C109.726 109.938 110.232 110.043 110.651 110.252C111.071 110.462 111.392 110.742 111.615 111.093C111.839 111.439 111.95 111.824 111.95 112.248H110.686C110.686 112.043 110.624 111.845 110.501 111.654C110.382 111.458 110.207 111.296 109.975 111.168C109.747 111.041 109.466 110.977 109.134 110.977C108.783 110.977 108.498 111.031 108.279 111.141C108.065 111.246 107.908 111.38 107.808 111.544C107.712 111.708 107.664 111.881 107.664 112.064C107.664 112.2 107.687 112.323 107.732 112.433C107.783 112.538 107.869 112.636 107.992 112.727C108.115 112.813 108.288 112.895 108.512 112.973C108.735 113.05 109.02 113.128 109.366 113.205C109.972 113.342 110.471 113.506 110.863 113.698C111.255 113.889 111.547 114.124 111.738 114.402C111.93 114.68 112.025 115.017 112.025 115.413C112.025 115.737 111.957 116.033 111.82 116.302C111.688 116.571 111.494 116.803 111.239 116.999C110.989 117.191 110.688 117.341 110.337 117.45C109.991 117.555 109.601 117.608 109.168 117.608C108.516 117.608 107.965 117.491 107.514 117.259C107.062 117.027 106.721 116.726 106.488 116.357C106.256 115.988 106.14 115.598 106.14 115.188H107.411C107.429 115.534 107.53 115.81 107.712 116.015C107.894 116.215 108.118 116.359 108.382 116.446C108.646 116.528 108.908 116.569 109.168 116.569C109.514 116.569 109.804 116.523 110.036 116.432C110.273 116.341 110.453 116.215 110.576 116.056C110.699 115.896 110.761 115.714 110.761 115.509Z" fill="white"/>
<g clip-path="url(#clip1_162_1069)">
<path d="M274.017 60.1836L283.026 69.1934L302.332 43.438C302.882 42.7035 302.802 41.682 302.159 41.0393C301.517 40.3965 300.495 40.3162 299.761 40.8671L274.017 60.1836ZM264.961 71.9021C264.399 71.7873 263.825 71.7185 263.228 71.7185C258.66 71.7185 254.964 75.4142 254.964 79.9822C254.964 80.4184 254.999 80.8431 255.056 81.2562C255.435 83.7124 254.803 86.203 253.472 88.1427L253.392 88.246H263.216C267.784 88.246 271.48 84.5503 271.48 79.9822C271.48 79.3854 271.423 78.8115 271.297 78.2491L264.938 71.8906L264.961 71.9021ZM286.183 74.1632C283.991 77.0899 280.605 78.8804 276.966 79.0526C276.989 79.3625 277.001 79.6724 277.001 79.9822C277.001 87.5918 270.837 93.7552 263.228 93.7552H245.782C243.751 93.7552 242.109 92.1139 242.109 90.0824C242.109 88.0509 243.751 86.4096 245.782 86.4096H246.471C248.548 86.4096 249.926 84.1371 249.616 82.0941C249.512 81.4054 249.455 80.7053 249.455 79.9822C249.455 72.3727 255.618 66.2093 263.228 66.2093C263.538 66.2093 263.848 66.2208 264.158 66.2437C264.33 62.6054 266.109 59.231 269.035 57.0273L296.455 36.4597C299.382 34.2676 303.468 34.5545 306.062 37.1369C308.656 39.7193 308.943 43.8168 306.75 46.7435L286.183 74.1632Z" fill="white"/>
</g>
<path d="M223.305 114.306H224.617C224.549 114.935 224.369 115.498 224.077 115.994C223.785 116.491 223.373 116.885 222.84 117.177C222.307 117.464 221.641 117.608 220.844 117.608C220.26 117.608 219.729 117.498 219.251 117.28C218.777 117.061 218.369 116.751 218.027 116.35C217.686 115.944 217.421 115.459 217.234 114.894C217.052 114.324 216.961 113.691 216.961 112.993V112.002C216.961 111.305 217.052 110.674 217.234 110.109C217.421 109.539 217.688 109.051 218.034 108.646C218.385 108.24 218.807 107.928 219.299 107.709C219.791 107.49 220.345 107.381 220.96 107.381C221.712 107.381 222.348 107.522 222.867 107.805C223.387 108.087 223.79 108.479 224.077 108.981C224.369 109.477 224.549 110.054 224.617 110.71H223.305C223.241 110.245 223.122 109.847 222.949 109.514C222.776 109.177 222.53 108.917 222.211 108.735C221.892 108.552 221.475 108.461 220.96 108.461C220.518 108.461 220.128 108.545 219.791 108.714C219.458 108.883 219.178 109.122 218.95 109.432C218.727 109.742 218.558 110.113 218.444 110.546C218.33 110.979 218.273 111.46 218.273 111.989V112.993C218.273 113.481 218.324 113.939 218.424 114.367C218.529 114.796 218.686 115.172 218.896 115.495C219.105 115.819 219.372 116.074 219.695 116.261C220.019 116.443 220.402 116.534 220.844 116.534C221.404 116.534 221.851 116.446 222.184 116.268C222.516 116.09 222.767 115.835 222.936 115.502C223.109 115.17 223.232 114.771 223.305 114.306ZM230.585 116.206V112.399C230.585 112.107 230.526 111.854 230.407 111.64C230.293 111.421 230.12 111.253 229.888 111.134C229.655 111.016 229.368 110.956 229.026 110.956C228.707 110.956 228.427 111.011 228.186 111.12C227.949 111.23 227.762 111.373 227.625 111.551C227.493 111.729 227.427 111.92 227.427 112.125H226.162C226.162 111.861 226.23 111.599 226.367 111.339C226.504 111.079 226.7 110.845 226.955 110.635C227.215 110.421 227.525 110.252 227.885 110.129C228.249 110.002 228.655 109.938 229.102 109.938C229.639 109.938 230.113 110.029 230.523 110.211C230.938 110.393 231.262 110.669 231.494 111.038C231.731 111.403 231.85 111.861 231.85 112.412V115.858C231.85 116.104 231.87 116.366 231.911 116.644C231.957 116.922 232.023 117.161 232.109 117.362V117.471H230.79C230.726 117.325 230.676 117.131 230.64 116.89C230.603 116.644 230.585 116.416 230.585 116.206ZM230.804 112.987L230.817 113.875H229.539C229.179 113.875 228.858 113.905 228.575 113.964C228.293 114.019 228.056 114.103 227.864 114.217C227.673 114.331 227.527 114.475 227.427 114.648C227.326 114.816 227.276 115.015 227.276 115.242C227.276 115.475 227.329 115.687 227.434 115.878C227.538 116.07 227.696 116.222 227.905 116.336C228.119 116.446 228.382 116.5 228.691 116.5C229.079 116.5 229.421 116.418 229.717 116.254C230.013 116.09 230.248 115.89 230.421 115.653C230.599 115.416 230.694 115.185 230.708 114.962L231.248 115.571C231.216 115.762 231.13 115.974 230.988 116.206C230.847 116.439 230.658 116.662 230.421 116.876C230.188 117.086 229.91 117.261 229.587 117.403C229.268 117.539 228.908 117.608 228.507 117.608C228.006 117.608 227.566 117.51 227.188 117.314C226.814 117.118 226.522 116.856 226.312 116.528C226.107 116.195 226.005 115.823 226.005 115.413C226.005 115.017 226.082 114.668 226.237 114.367C226.392 114.062 226.616 113.809 226.907 113.609C227.199 113.404 227.55 113.249 227.96 113.144C228.37 113.039 228.828 112.987 229.334 112.987H230.804ZM235.104 111.496V120.315H233.832V110.074H234.994L235.104 111.496ZM240.087 113.711V113.855C240.087 114.392 240.023 114.892 239.896 115.352C239.768 115.808 239.581 116.204 239.335 116.541C239.093 116.878 238.795 117.141 238.439 117.327C238.084 117.514 237.676 117.608 237.216 117.608C236.746 117.608 236.332 117.53 235.972 117.375C235.612 117.22 235.306 116.995 235.056 116.698C234.805 116.402 234.604 116.047 234.454 115.632C234.308 115.217 234.208 114.75 234.153 114.231V113.465C234.208 112.918 234.311 112.428 234.461 111.995C234.611 111.562 234.81 111.193 235.056 110.888C235.306 110.578 235.609 110.343 235.965 110.184C236.32 110.02 236.73 109.938 237.195 109.938C237.66 109.938 238.073 110.029 238.433 110.211C238.793 110.389 239.096 110.644 239.342 110.977C239.588 111.309 239.772 111.708 239.896 112.173C240.023 112.633 240.087 113.146 240.087 113.711ZM238.815 113.855V113.711C238.815 113.342 238.777 112.996 238.699 112.672C238.622 112.344 238.501 112.057 238.337 111.811C238.177 111.56 237.972 111.364 237.722 111.223C237.471 111.077 237.173 111.004 236.826 111.004C236.507 111.004 236.229 111.059 235.992 111.168C235.76 111.278 235.562 111.426 235.397 111.613C235.233 111.795 235.099 112.004 234.994 112.241C234.894 112.474 234.819 112.715 234.769 112.966V114.737C234.86 115.056 234.987 115.356 235.151 115.639C235.315 115.917 235.534 116.142 235.808 116.316C236.081 116.484 236.425 116.569 236.84 116.569C237.182 116.569 237.476 116.498 237.722 116.357C237.972 116.211 238.177 116.013 238.337 115.762C238.501 115.511 238.622 115.224 238.699 114.901C238.777 114.573 238.815 114.224 238.815 113.855ZM244.797 110.074V111.045H240.798V110.074H244.797ZM242.151 108.277H243.416V115.639C243.416 115.89 243.455 116.079 243.532 116.206C243.61 116.334 243.71 116.418 243.833 116.459C243.956 116.5 244.088 116.521 244.229 116.521C244.334 116.521 244.444 116.512 244.558 116.493C244.676 116.471 244.765 116.452 244.824 116.439L244.831 117.471C244.731 117.503 244.599 117.532 244.435 117.56C244.275 117.592 244.081 117.608 243.854 117.608C243.544 117.608 243.259 117.546 242.999 117.423C242.739 117.3 242.532 117.095 242.377 116.808C242.227 116.516 242.151 116.124 242.151 115.632V108.277ZM247.654 110.074V117.471H246.383V110.074H247.654ZM246.287 108.113C246.287 107.907 246.349 107.734 246.472 107.593C246.599 107.452 246.786 107.381 247.032 107.381C247.274 107.381 247.458 107.452 247.586 107.593C247.718 107.734 247.784 107.907 247.784 108.113C247.784 108.309 247.718 108.477 247.586 108.618C247.458 108.755 247.274 108.823 247.032 108.823C246.786 108.823 246.599 108.755 246.472 108.618C246.349 108.477 246.287 108.309 246.287 108.113ZM251.934 116.329L253.957 110.074H255.249L252.59 117.471H251.742L251.934 116.329ZM250.245 110.074L252.33 116.364L252.474 117.471H251.626L248.946 110.074H250.245ZM260.718 116.206V112.399C260.718 112.107 260.659 111.854 260.54 111.64C260.426 111.421 260.253 111.253 260.021 111.134C259.788 111.016 259.501 110.956 259.159 110.956C258.84 110.956 258.56 111.011 258.318 111.12C258.081 111.23 257.895 111.373 257.758 111.551C257.626 111.729 257.56 111.92 257.56 112.125H256.295C256.295 111.861 256.363 111.599 256.5 111.339C256.637 111.079 256.833 110.845 257.088 110.635C257.348 110.421 257.658 110.252 258.018 110.129C258.382 110.002 258.788 109.938 259.234 109.938C259.772 109.938 260.246 110.029 260.656 110.211C261.071 110.393 261.395 110.669 261.627 111.038C261.864 111.403 261.982 111.861 261.982 112.412V115.858C261.982 116.104 262.003 116.366 262.044 116.644C262.09 116.922 262.156 117.161 262.242 117.362V117.471H260.923C260.859 117.325 260.809 117.131 260.772 116.89C260.736 116.644 260.718 116.416 260.718 116.206ZM260.937 112.987L260.95 113.875H259.672C259.312 113.875 258.991 113.905 258.708 113.964C258.425 114.019 258.188 114.103 257.997 114.217C257.806 114.331 257.66 114.475 257.56 114.648C257.459 114.816 257.409 115.015 257.409 115.242C257.409 115.475 257.462 115.687 257.566 115.878C257.671 116.07 257.828 116.222 258.038 116.336C258.252 116.446 258.514 116.5 258.824 116.5C259.212 116.5 259.553 116.418 259.85 116.254C260.146 116.09 260.381 115.89 260.554 115.653C260.731 115.416 260.827 115.185 260.841 114.962L261.381 115.571C261.349 115.762 261.262 115.974 261.121 116.206C260.98 116.439 260.791 116.662 260.554 116.876C260.321 117.086 260.043 117.261 259.72 117.403C259.401 117.539 259.041 117.608 258.64 117.608C258.138 117.608 257.699 117.51 257.32 117.314C256.947 117.118 256.655 116.856 256.445 116.528C256.24 116.195 256.138 115.823 256.138 115.413C256.138 115.017 256.215 114.668 256.37 114.367C256.525 114.062 256.748 113.809 257.04 113.609C257.332 113.404 257.683 113.249 258.093 113.144C258.503 113.039 258.961 112.987 259.467 112.987H260.937ZM267.068 110.074V111.045H263.069V110.074H267.068ZM264.423 108.277H265.688V115.639C265.688 115.89 265.726 116.079 265.804 116.206C265.881 116.334 265.981 116.418 266.104 116.459C266.228 116.5 266.36 116.521 266.501 116.521C266.606 116.521 266.715 116.512 266.829 116.493C266.948 116.471 267.036 116.452 267.096 116.439L267.103 117.471C267.002 117.503 266.87 117.532 266.706 117.56C266.547 117.592 266.353 117.608 266.125 117.608C265.815 117.608 265.53 117.546 265.271 117.423C265.011 117.3 264.803 117.095 264.648 116.808C264.498 116.516 264.423 116.124 264.423 115.632V108.277ZM269.926 110.074V117.471H268.654V110.074H269.926ZM268.559 108.113C268.559 107.907 268.62 107.734 268.743 107.593C268.871 107.452 269.058 107.381 269.304 107.381C269.545 107.381 269.73 107.452 269.857 107.593C269.99 107.734 270.056 107.907 270.056 108.113C270.056 108.309 269.99 108.477 269.857 108.618C269.73 108.755 269.545 108.823 269.304 108.823C269.058 108.823 268.871 108.755 268.743 108.618C268.62 108.477 268.559 108.309 268.559 108.113ZM273.221 111.654V117.471H271.956V110.074H273.152L273.221 111.654ZM272.92 113.492L272.394 113.472C272.398 112.966 272.473 112.499 272.619 112.071C272.765 111.638 272.97 111.262 273.234 110.943C273.499 110.624 273.813 110.378 274.178 110.204C274.547 110.027 274.955 109.938 275.401 109.938C275.766 109.938 276.094 109.988 276.386 110.088C276.677 110.184 276.926 110.339 277.131 110.553C277.34 110.767 277.5 111.045 277.609 111.387C277.719 111.724 277.773 112.137 277.773 112.624V117.471H276.502V112.611C276.502 112.223 276.445 111.913 276.331 111.681C276.217 111.444 276.051 111.273 275.832 111.168C275.613 111.059 275.344 111.004 275.025 111.004C274.711 111.004 274.424 111.07 274.164 111.202C273.909 111.335 273.688 111.517 273.501 111.749C273.319 111.982 273.175 112.248 273.07 112.549C272.97 112.845 272.92 113.16 272.92 113.492ZM284.486 110.074H285.635V117.314C285.635 117.965 285.503 118.521 285.238 118.982C284.974 119.442 284.605 119.791 284.131 120.028C283.661 120.269 283.119 120.39 282.504 120.39C282.249 120.39 281.948 120.349 281.602 120.267C281.26 120.189 280.923 120.055 280.59 119.864C280.262 119.677 279.986 119.424 279.763 119.105L280.426 118.353C280.736 118.726 281.059 118.986 281.396 119.132C281.738 119.278 282.076 119.351 282.408 119.351C282.809 119.351 283.156 119.276 283.447 119.125C283.739 118.975 283.965 118.752 284.124 118.455C284.288 118.164 284.37 117.804 284.37 117.375V111.701L284.486 110.074ZM279.394 113.855V113.711C279.394 113.146 279.46 112.633 279.592 112.173C279.729 111.708 279.922 111.309 280.173 110.977C280.428 110.644 280.736 110.389 281.096 110.211C281.456 110.029 281.861 109.938 282.312 109.938C282.777 109.938 283.183 110.02 283.529 110.184C283.88 110.343 284.176 110.578 284.418 110.888C284.664 111.193 284.858 111.562 284.999 111.995C285.14 112.428 285.238 112.918 285.293 113.465V114.094C285.243 114.636 285.145 115.124 284.999 115.557C284.858 115.99 284.664 116.359 284.418 116.664C284.176 116.97 283.88 117.204 283.529 117.368C283.178 117.528 282.768 117.608 282.299 117.608C281.857 117.608 281.456 117.514 281.096 117.327C280.74 117.141 280.435 116.878 280.18 116.541C279.924 116.204 279.729 115.808 279.592 115.352C279.46 114.892 279.394 114.392 279.394 113.855ZM280.658 113.711V113.855C280.658 114.224 280.695 114.57 280.768 114.894C280.845 115.217 280.961 115.502 281.116 115.748C281.276 115.994 281.479 116.188 281.725 116.329C281.971 116.466 282.265 116.534 282.606 116.534C283.026 116.534 283.372 116.446 283.646 116.268C283.919 116.09 284.135 115.855 284.295 115.564C284.459 115.272 284.587 114.955 284.678 114.614V112.966C284.628 112.715 284.55 112.474 284.445 112.241C284.345 112.004 284.213 111.795 284.049 111.613C283.889 111.426 283.691 111.278 283.454 111.168C283.217 111.059 282.939 111.004 282.62 111.004C282.274 111.004 281.975 111.077 281.725 111.223C281.479 111.364 281.276 111.56 281.116 111.811C280.961 112.057 280.845 112.344 280.768 112.672C280.695 112.996 280.658 113.342 280.658 113.711ZM293.913 117.471H291.835L291.849 116.398H293.913C294.624 116.398 295.216 116.25 295.69 115.953C296.164 115.653 296.52 115.233 296.757 114.696C296.998 114.153 297.119 113.52 297.119 112.795V112.187C297.119 111.617 297.051 111.111 296.914 110.669C296.777 110.223 296.577 109.847 296.312 109.541C296.048 109.231 295.725 108.997 295.342 108.837C294.964 108.678 294.528 108.598 294.036 108.598H291.794V107.518H294.036C294.688 107.518 295.283 107.627 295.82 107.846C296.358 108.06 296.821 108.372 297.208 108.782C297.6 109.188 297.901 109.68 298.11 110.259C298.32 110.833 298.425 111.48 298.425 112.2V112.795C298.425 113.515 298.32 114.165 298.11 114.743C297.901 115.318 297.598 115.808 297.201 116.213C296.809 116.619 296.335 116.931 295.779 117.15C295.228 117.364 294.606 117.471 293.913 117.471ZM292.539 107.518V117.471H291.22V107.518H292.539ZM303.285 117.608C302.77 117.608 302.303 117.521 301.884 117.348C301.469 117.17 301.111 116.922 300.811 116.603C300.514 116.284 300.286 115.906 300.127 115.468C299.967 115.031 299.888 114.552 299.888 114.032V113.745C299.888 113.144 299.977 112.608 300.154 112.139C300.332 111.665 300.574 111.264 300.879 110.936C301.184 110.608 301.531 110.359 301.918 110.191C302.305 110.022 302.706 109.938 303.121 109.938C303.65 109.938 304.105 110.029 304.488 110.211C304.876 110.393 305.192 110.649 305.438 110.977C305.685 111.3 305.867 111.683 305.985 112.125C306.104 112.563 306.163 113.041 306.163 113.561V114.128H300.64V113.096H304.898V113C304.88 112.672 304.812 112.353 304.693 112.043C304.579 111.733 304.397 111.478 304.146 111.278C303.896 111.077 303.554 110.977 303.121 110.977C302.834 110.977 302.57 111.038 302.328 111.161C302.087 111.28 301.879 111.458 301.706 111.695C301.533 111.932 301.398 112.221 301.303 112.563C301.207 112.905 301.159 113.299 301.159 113.745V114.032C301.159 114.383 301.207 114.714 301.303 115.024C301.403 115.329 301.547 115.598 301.733 115.83C301.925 116.063 302.155 116.245 302.424 116.377C302.697 116.509 303.007 116.575 303.354 116.575C303.8 116.575 304.178 116.484 304.488 116.302C304.798 116.12 305.069 115.876 305.302 115.571L306.067 116.179C305.908 116.42 305.705 116.651 305.459 116.869C305.213 117.088 304.91 117.266 304.55 117.403C304.194 117.539 303.773 117.608 303.285 117.608ZM311.946 115.509C311.946 115.327 311.905 115.158 311.823 115.003C311.746 114.844 311.584 114.7 311.338 114.573C311.096 114.44 310.732 114.326 310.244 114.231C309.834 114.144 309.463 114.042 309.13 113.923C308.802 113.805 308.521 113.661 308.289 113.492C308.061 113.324 307.886 113.126 307.763 112.898C307.64 112.67 307.578 112.403 307.578 112.098C307.578 111.806 307.642 111.531 307.77 111.271C307.902 111.011 308.086 110.781 308.323 110.58C308.565 110.38 308.854 110.223 309.191 110.109C309.529 109.995 309.905 109.938 310.319 109.938C310.912 109.938 311.418 110.043 311.837 110.252C312.256 110.462 312.577 110.742 312.801 111.093C313.024 111.439 313.136 111.824 313.136 112.248H311.871C311.871 112.043 311.81 111.845 311.687 111.654C311.568 111.458 311.393 111.296 311.16 111.168C310.932 111.041 310.652 110.977 310.319 110.977C309.968 110.977 309.684 111.031 309.465 111.141C309.251 111.246 309.093 111.38 308.993 111.544C308.897 111.708 308.85 111.881 308.85 112.064C308.85 112.2 308.872 112.323 308.918 112.433C308.968 112.538 309.055 112.636 309.178 112.727C309.301 112.813 309.474 112.895 309.697 112.973C309.921 113.05 310.205 113.128 310.552 113.205C311.158 113.342 311.657 113.506 312.049 113.698C312.441 113.889 312.732 114.124 312.924 114.402C313.115 114.68 313.211 115.017 313.211 115.413C313.211 115.737 313.143 116.033 313.006 116.302C312.874 116.571 312.68 116.803 312.425 116.999C312.174 117.191 311.873 117.341 311.522 117.45C311.176 117.555 310.786 117.608 310.354 117.608C309.702 117.608 309.15 117.491 308.699 117.259C308.248 117.027 307.906 116.726 307.674 116.357C307.441 115.988 307.325 115.598 307.325 115.188H308.597C308.615 115.534 308.715 115.81 308.897 116.015C309.08 116.215 309.303 116.359 309.567 116.446C309.832 116.528 310.094 116.569 310.354 116.569C310.7 116.569 310.989 116.523 311.222 116.432C311.459 116.341 311.639 116.215 311.762 116.056C311.885 115.896 311.946 115.714 311.946 115.509ZM316.246 110.074V117.471H314.975V110.074H316.246ZM314.879 108.113C314.879 107.907 314.94 107.734 315.063 107.593C315.191 107.452 315.378 107.381 315.624 107.381C315.866 107.381 316.05 107.452 316.178 107.593C316.31 107.734 316.376 107.907 316.376 108.113C316.376 108.309 316.31 108.477 316.178 108.618C316.05 108.755 315.866 108.823 315.624 108.823C315.378 108.823 315.191 108.755 315.063 108.618C314.94 108.477 314.879 108.309 314.879 108.113ZM323.068 110.074H324.217V117.314C324.217 117.965 324.085 118.521 323.82 118.982C323.556 119.442 323.187 119.791 322.713 120.028C322.243 120.269 321.701 120.39 321.086 120.39C320.831 120.39 320.53 120.349 320.184 120.267C319.842 120.189 319.505 120.055 319.172 119.864C318.844 119.677 318.568 119.424 318.345 119.105L319.008 118.353C319.318 118.726 319.641 118.986 319.979 119.132C320.32 119.278 320.658 119.351 320.99 119.351C321.391 119.351 321.738 119.276 322.029 119.125C322.321 118.975 322.547 118.752 322.706 118.455C322.87 118.164 322.952 117.804 322.952 117.375V111.701L323.068 110.074ZM317.976 113.855V113.711C317.976 113.146 318.042 112.633 318.174 112.173C318.311 111.708 318.504 111.309 318.755 110.977C319.01 110.644 319.318 110.389 319.678 110.211C320.038 110.029 320.443 109.938 320.895 109.938C321.359 109.938 321.765 110.02 322.111 110.184C322.462 110.343 322.758 110.578 323 110.888C323.246 111.193 323.44 111.562 323.581 111.995C323.722 112.428 323.82 112.918 323.875 113.465V114.094C323.825 114.636 323.727 115.124 323.581 115.557C323.44 115.99 323.246 116.359 323 116.664C322.758 116.97 322.462 117.204 322.111 117.368C321.76 117.528 321.35 117.608 320.881 117.608C320.439 117.608 320.038 117.514 319.678 117.327C319.322 117.141 319.017 116.878 318.762 116.541C318.507 116.204 318.311 115.808 318.174 115.352C318.042 114.892 317.976 114.392 317.976 113.855ZM319.24 113.711V113.855C319.24 114.224 319.277 114.57 319.35 114.894C319.427 115.217 319.543 115.502 319.698 115.748C319.858 115.994 320.061 116.188 320.307 116.329C320.553 116.466 320.847 116.534 321.188 116.534C321.608 116.534 321.954 116.446 322.228 116.268C322.501 116.09 322.717 115.855 322.877 115.564C323.041 115.272 323.169 114.955 323.26 114.614V112.966C323.21 112.715 323.132 112.474 323.027 112.241C322.927 112.004 322.795 111.795 322.631 111.613C322.471 111.426 322.273 111.278 322.036 111.168C321.799 111.059 321.521 111.004 321.202 111.004C320.856 111.004 320.557 111.077 320.307 111.223C320.061 111.364 319.858 111.56 319.698 111.811C319.543 112.057 319.427 112.344 319.35 112.672C319.277 112.996 319.24 113.342 319.24 113.711ZM327.402 111.654V117.471H326.138V110.074H327.334L327.402 111.654ZM327.102 113.492L326.575 113.472C326.58 112.966 326.655 112.499 326.801 112.071C326.947 111.638 327.152 111.262 327.416 110.943C327.68 110.624 327.995 110.378 328.359 110.204C328.729 110.027 329.136 109.938 329.583 109.938C329.948 109.938 330.276 109.988 330.567 110.088C330.859 110.184 331.107 110.339 331.312 110.553C331.522 110.767 331.682 111.045 331.791 111.387C331.9 111.724 331.955 112.137 331.955 112.624V117.471H330.684V112.611C330.684 112.223 330.627 111.913 330.513 111.681C330.399 111.444 330.232 111.273 330.014 111.168C329.795 111.059 329.526 111.004 329.207 111.004C328.893 111.004 328.605 111.07 328.346 111.202C328.09 111.335 327.869 111.517 327.683 111.749C327.5 111.982 327.357 112.248 327.252 112.549C327.152 112.845 327.102 113.16 327.102 113.492Z" fill="white"/>
<g clip-path="url(#clip2_162_1069)">
<path d="M55.8239 241.621H99.8974C100.907 241.621 101.734 242.448 101.734 243.458V269.167H107.243V243.458C107.243 239.406 103.949 236.112 99.8974 236.112H55.8239C51.7724 236.112 48.4784 239.406 48.4784 243.458V269.167H53.9876V243.458C53.9876 242.448 54.8139 241.621 55.8239 241.621ZM46.9519 278.349H108.758C108 280.484 105.957 282.022 103.559 282.022H52.1512C49.7524 282.022 47.7094 280.484 46.9519 278.349ZM44.8056 272.84C42.7741 272.84 41.1328 274.481 41.1328 276.513C41.1328 282.596 46.0681 287.531 52.1512 287.531H103.57C109.653 287.531 114.588 282.596 114.588 276.513C114.588 274.481 112.947 272.84 110.916 272.84H44.8056ZM64.0877 247.131C61.5512 247.131 59.4967 249.185 59.4967 251.722V255.394C59.4967 257.931 61.5512 259.985 64.0877 259.985H65.9241C68.4606 259.985 70.5151 257.931 70.5151 255.394V251.722C70.5151 249.185 68.4606 247.131 65.9241 247.131H64.0877ZM63.1695 251.722C63.1695 251.217 63.5827 250.803 64.0877 250.803H65.9241C66.4291 250.803 66.8423 251.217 66.8423 251.722V255.394C66.8423 255.899 66.4291 256.312 65.9241 256.312H64.0877C63.5827 256.312 63.1695 255.899 63.1695 255.394V251.722ZM76.0243 247.131C75.0142 247.131 74.1879 247.957 74.1879 248.967C74.1879 249.977 75.0142 250.803 76.0243 250.803V258.149C76.0243 259.159 76.8506 259.985 77.8607 259.985C78.8707 259.985 79.697 259.159 79.697 258.149V248.967C79.697 247.957 78.8707 247.131 77.8607 247.131H76.0243ZM85.2062 251.722V255.394C85.2062 257.931 87.2607 259.985 89.7972 259.985H91.6336C94.1701 259.985 96.2246 257.931 96.2246 255.394V251.722C96.2246 249.185 94.1701 247.131 91.6336 247.131H89.7972C87.2607 247.131 85.2062 249.185 85.2062 251.722ZM89.7972 250.803H91.6336C92.1386 250.803 92.5518 251.217 92.5518 251.722V255.394C92.5518 255.899 92.1386 256.312 91.6336 256.312H89.7972C89.2922 256.312 88.879 255.899 88.879 255.394V251.722C88.879 251.217 89.2922 250.803 89.7972 250.803ZM63.1695 263.658C62.1595 263.658 61.3331 264.484 61.3331 265.494C61.3331 266.504 62.1595 267.331 63.1695 267.331V269.167H66.8423V265.494C66.8423 264.484 66.0159 263.658 65.0059 263.658H63.1695ZM90.7154 263.658H88.879C87.869 263.658 87.0426 264.484 87.0426 265.494C87.0426 266.504 87.869 267.331 88.879 267.331V269.167H92.5518V265.494C92.5518 264.484 91.7254 263.658 90.7154 263.658ZM83.3698 268.249C83.3698 265.713 81.3154 263.658 78.7788 263.658H76.9425C74.4059 263.658 72.3515 265.713 72.3515 268.249V269.167H76.0243V268.249C76.0243 267.744 76.4374 267.331 76.9425 267.331H78.7788C79.2839 267.331 79.697 267.744 79.697 268.249V269.167H83.3698V268.249Z" fill="white"/>
</g>
<path d="M33.7451 303.264H37.04C37.7874 303.264 38.4186 303.378 38.9336 303.605C39.4531 303.833 39.8473 304.171 40.1162 304.617C40.3896 305.059 40.5264 305.604 40.5264 306.251C40.5264 306.707 40.4329 307.124 40.2461 307.502C40.0638 307.876 39.7995 308.195 39.4531 308.459C39.1113 308.719 38.7012 308.912 38.2227 309.04L37.8535 309.184H34.7568L34.7432 308.11H37.0811C37.555 308.11 37.9492 308.028 38.2637 307.864C38.5781 307.696 38.8151 307.47 38.9746 307.188C39.1341 306.905 39.2139 306.593 39.2139 306.251C39.2139 305.868 39.1387 305.533 38.9883 305.246C38.8379 304.959 38.6009 304.738 38.2773 304.583C37.9583 304.424 37.5459 304.344 37.04 304.344H35.0645V313.217H33.7451V303.264ZM39.5625 313.217L37.1426 308.705L38.5166 308.698L40.9707 313.135V313.217H39.5625ZM45.25 313.354C44.735 313.354 44.2679 313.267 43.8486 313.094C43.4339 312.916 43.0762 312.668 42.7754 312.349C42.4792 312.03 42.2513 311.651 42.0918 311.214C41.9323 310.776 41.8525 310.298 41.8525 309.778V309.491C41.8525 308.89 41.9414 308.354 42.1191 307.885C42.2969 307.411 42.5384 307.01 42.8438 306.682C43.1491 306.354 43.4954 306.105 43.8828 305.937C44.2702 305.768 44.6712 305.684 45.0859 305.684C45.6146 305.684 46.0703 305.775 46.4531 305.957C46.8405 306.139 47.1572 306.395 47.4033 306.723C47.6494 307.046 47.8317 307.429 47.9502 307.871C48.0687 308.309 48.1279 308.787 48.1279 309.307V309.874H42.6045V308.842H46.8633V308.746C46.8451 308.418 46.7767 308.099 46.6582 307.789C46.5443 307.479 46.362 307.224 46.1113 307.023C45.8607 306.823 45.5189 306.723 45.0859 306.723C44.7988 306.723 44.5345 306.784 44.293 306.907C44.0514 307.026 43.8441 307.203 43.6709 307.44C43.4977 307.677 43.3633 307.967 43.2676 308.309C43.1719 308.65 43.124 309.045 43.124 309.491V309.778C43.124 310.129 43.1719 310.46 43.2676 310.77C43.3678 311.075 43.5114 311.344 43.6982 311.576C43.8896 311.809 44.1198 311.991 44.3887 312.123C44.6621 312.255 44.972 312.321 45.3184 312.321C45.765 312.321 46.1432 312.23 46.4531 312.048C46.763 311.866 47.0342 311.622 47.2666 311.316L48.0322 311.925C47.8727 312.166 47.6699 312.396 47.4238 312.615C47.1777 312.834 46.8747 313.012 46.5146 313.148C46.1592 313.285 45.7376 313.354 45.25 313.354ZM53.9111 311.255C53.9111 311.073 53.8701 310.904 53.7881 310.749C53.7106 310.59 53.5488 310.446 53.3027 310.318C53.0612 310.186 52.6966 310.072 52.209 309.977C51.7988 309.89 51.4274 309.787 51.0947 309.669C50.7666 309.55 50.4863 309.407 50.2539 309.238C50.026 309.07 49.8506 308.871 49.7275 308.644C49.6045 308.416 49.543 308.149 49.543 307.844C49.543 307.552 49.6068 307.276 49.7344 307.017C49.8665 306.757 50.0511 306.527 50.2881 306.326C50.5296 306.126 50.819 305.968 51.1562 305.854C51.4935 305.741 51.8695 305.684 52.2842 305.684C52.8766 305.684 53.3825 305.788 53.8018 305.998C54.221 306.208 54.5423 306.488 54.7656 306.839C54.9889 307.185 55.1006 307.57 55.1006 307.994H53.8359C53.8359 307.789 53.7744 307.591 53.6514 307.399C53.5329 307.203 53.3574 307.042 53.125 306.914C52.8971 306.786 52.6169 306.723 52.2842 306.723C51.9333 306.723 51.6484 306.777 51.4297 306.887C51.2155 306.992 51.0583 307.126 50.958 307.29C50.8623 307.454 50.8145 307.627 50.8145 307.81C50.8145 307.946 50.8372 308.069 50.8828 308.179C50.9329 308.284 51.0195 308.382 51.1426 308.473C51.2656 308.559 51.4388 308.641 51.6621 308.719C51.8854 308.796 52.1702 308.874 52.5166 308.951C53.1227 309.088 53.6217 309.252 54.0137 309.443C54.4056 309.635 54.6973 309.869 54.8887 310.147C55.0801 310.425 55.1758 310.763 55.1758 311.159C55.1758 311.483 55.1074 311.779 54.9707 312.048C54.8385 312.317 54.6449 312.549 54.3896 312.745C54.139 312.937 53.8382 313.087 53.4873 313.196C53.141 313.301 52.7513 313.354 52.3184 313.354C51.6667 313.354 51.1152 313.237 50.6641 313.005C50.2129 312.772 49.8711 312.472 49.6387 312.103C49.4062 311.733 49.29 311.344 49.29 310.934H50.5615C50.5798 311.28 50.68 311.556 50.8623 311.761C51.0446 311.961 51.2679 312.105 51.5322 312.191C51.7965 312.273 52.0586 312.314 52.3184 312.314C52.6647 312.314 52.9541 312.269 53.1865 312.178C53.4235 312.087 53.6035 311.961 53.7266 311.802C53.8496 311.642 53.9111 311.46 53.9111 311.255ZM58.2109 305.82V313.217H56.9395V305.82H58.2109ZM56.8438 303.858C56.8438 303.653 56.9053 303.48 57.0283 303.339C57.1559 303.198 57.3428 303.127 57.5889 303.127C57.8304 303.127 58.015 303.198 58.1426 303.339C58.2747 303.48 58.3408 303.653 58.3408 303.858C58.3408 304.054 58.2747 304.223 58.1426 304.364C58.015 304.501 57.8304 304.569 57.5889 304.569C57.3428 304.569 57.1559 304.501 57.0283 304.364C56.9053 304.223 56.8438 304.054 56.8438 303.858ZM61.6152 302.717V313.217H60.3438V302.717H61.6152ZM65.0195 305.82V313.217H63.748V305.82H65.0195ZM63.6523 303.858C63.6523 303.653 63.7139 303.48 63.8369 303.339C63.9645 303.198 64.1514 303.127 64.3975 303.127C64.639 303.127 64.8236 303.198 64.9512 303.339C65.0833 303.48 65.1494 303.653 65.1494 303.858C65.1494 304.054 65.0833 304.223 64.9512 304.364C64.8236 304.501 64.639 304.569 64.3975 304.569C64.1514 304.569 63.9645 304.501 63.8369 304.364C63.7139 304.223 63.6523 304.054 63.6523 303.858ZM70.1191 313.354C69.6042 313.354 69.137 313.267 68.7178 313.094C68.3031 312.916 67.9453 312.668 67.6445 312.349C67.3483 312.03 67.1204 311.651 66.9609 311.214C66.8014 310.776 66.7217 310.298 66.7217 309.778V309.491C66.7217 308.89 66.8105 308.354 66.9883 307.885C67.166 307.411 67.4076 307.01 67.7129 306.682C68.0182 306.354 68.3646 306.105 68.752 305.937C69.1393 305.768 69.5404 305.684 69.9551 305.684C70.4837 305.684 70.9395 305.775 71.3223 305.957C71.7096 306.139 72.0264 306.395 72.2725 306.723C72.5186 307.046 72.7008 307.429 72.8193 307.871C72.9378 308.309 72.9971 308.787 72.9971 309.307V309.874H67.4736V308.842H71.7324V308.746C71.7142 308.418 71.6458 308.099 71.5273 307.789C71.4134 307.479 71.2311 307.224 70.9805 307.023C70.7298 306.823 70.388 306.723 69.9551 306.723C69.668 306.723 69.4036 306.784 69.1621 306.907C68.9206 307.026 68.7132 307.203 68.54 307.44C68.3669 307.677 68.2324 307.967 68.1367 308.309C68.041 308.65 67.9932 309.045 67.9932 309.491V309.778C67.9932 310.129 68.041 310.46 68.1367 310.77C68.237 311.075 68.3805 311.344 68.5674 311.576C68.7588 311.809 68.9889 311.991 69.2578 312.123C69.5312 312.255 69.8411 312.321 70.1875 312.321C70.6341 312.321 71.0124 312.23 71.3223 312.048C71.6322 311.866 71.9033 311.622 72.1357 311.316L72.9014 311.925C72.7419 312.166 72.5391 312.396 72.293 312.615C72.0469 312.834 71.7438 313.012 71.3838 313.148C71.0283 313.285 70.6068 313.354 70.1191 313.354ZM75.7383 307.399V313.217H74.4736V305.82H75.6699L75.7383 307.399ZM75.4375 309.238L74.9111 309.218C74.9157 308.712 74.9909 308.245 75.1367 307.816C75.2826 307.383 75.4876 307.007 75.752 306.688C76.0163 306.369 76.3307 306.123 76.6953 305.95C77.0645 305.772 77.4723 305.684 77.9189 305.684C78.2835 305.684 78.6117 305.734 78.9033 305.834C79.195 305.93 79.4434 306.085 79.6484 306.299C79.8581 306.513 80.0176 306.791 80.127 307.133C80.2363 307.47 80.291 307.882 80.291 308.37V313.217H79.0195V308.356C79.0195 307.969 78.9626 307.659 78.8486 307.427C78.7347 307.19 78.5684 307.019 78.3496 306.914C78.1309 306.805 77.862 306.75 77.543 306.75C77.2285 306.75 76.9414 306.816 76.6816 306.948C76.4264 307.08 76.2054 307.263 76.0186 307.495C75.8363 307.728 75.6927 307.994 75.5879 308.295C75.4876 308.591 75.4375 308.906 75.4375 309.238ZM85.3086 305.82V306.791H81.3096V305.82H85.3086ZM82.6631 304.022H83.9277V311.385C83.9277 311.635 83.9665 311.825 84.0439 311.952C84.1214 312.08 84.2217 312.164 84.3447 312.205C84.4678 312.246 84.5999 312.267 84.7412 312.267C84.846 312.267 84.9554 312.257 85.0693 312.239C85.1878 312.216 85.2767 312.198 85.3359 312.185L85.3428 313.217C85.2425 313.249 85.1104 313.278 84.9463 313.306C84.7868 313.338 84.5931 313.354 84.3652 313.354C84.0553 313.354 83.7705 313.292 83.5107 313.169C83.251 313.046 83.0436 312.841 82.8887 312.554C82.7383 312.262 82.6631 311.87 82.6631 311.378V304.022ZM96.4648 310.052H97.7773C97.709 310.681 97.529 311.243 97.2373 311.74C96.9456 312.237 96.5332 312.631 96 312.923C95.4668 313.21 94.8014 313.354 94.0039 313.354C93.4206 313.354 92.8896 313.244 92.4111 313.025C91.9372 312.807 91.5293 312.497 91.1875 312.096C90.8457 311.69 90.5814 311.205 90.3945 310.64C90.2122 310.07 90.1211 309.437 90.1211 308.739V307.748C90.1211 307.051 90.2122 306.42 90.3945 305.854C90.5814 305.285 90.848 304.797 91.1943 304.392C91.5452 303.986 91.9668 303.674 92.459 303.455C92.9512 303.236 93.5049 303.127 94.1201 303.127C94.8721 303.127 95.5078 303.268 96.0273 303.551C96.5469 303.833 96.9502 304.225 97.2373 304.727C97.529 305.223 97.709 305.8 97.7773 306.456H96.4648C96.401 305.991 96.2826 305.592 96.1094 305.26C95.9362 304.923 95.6901 304.663 95.3711 304.48C95.0521 304.298 94.6351 304.207 94.1201 304.207C93.6781 304.207 93.2884 304.291 92.9512 304.46C92.6185 304.629 92.3382 304.868 92.1104 305.178C91.887 305.488 91.7184 305.859 91.6045 306.292C91.4906 306.725 91.4336 307.206 91.4336 307.734V308.739C91.4336 309.227 91.4837 309.685 91.584 310.113C91.6888 310.542 91.846 310.918 92.0557 311.241C92.2653 311.565 92.5319 311.82 92.8555 312.007C93.179 312.189 93.5618 312.28 94.0039 312.28C94.5645 312.28 95.0111 312.191 95.3438 312.014C95.6764 311.836 95.9271 311.581 96.0957 311.248C96.2689 310.915 96.3919 310.517 96.4648 310.052ZM99.0488 309.601V309.443C99.0488 308.91 99.1263 308.416 99.2812 307.96C99.4362 307.5 99.6595 307.101 99.9512 306.764C100.243 306.422 100.596 306.158 101.011 305.971C101.425 305.779 101.89 305.684 102.405 305.684C102.925 305.684 103.392 305.779 103.807 305.971C104.226 306.158 104.581 306.422 104.873 306.764C105.169 307.101 105.395 307.5 105.55 307.96C105.705 308.416 105.782 308.91 105.782 309.443V309.601C105.782 310.134 105.705 310.628 105.55 311.084C105.395 311.54 105.169 311.938 104.873 312.28C104.581 312.618 104.228 312.882 103.813 313.073C103.403 313.26 102.938 313.354 102.419 313.354C101.899 313.354 101.432 313.26 101.018 313.073C100.603 312.882 100.247 312.618 99.9512 312.28C99.6595 311.938 99.4362 311.54 99.2812 311.084C99.1263 310.628 99.0488 310.134 99.0488 309.601ZM100.313 309.443V309.601C100.313 309.97 100.357 310.318 100.443 310.646C100.53 310.97 100.66 311.257 100.833 311.508C101.011 311.758 101.232 311.957 101.496 312.103C101.76 312.244 102.068 312.314 102.419 312.314C102.765 312.314 103.068 312.244 103.328 312.103C103.592 311.957 103.811 311.758 103.984 311.508C104.158 311.257 104.287 310.97 104.374 310.646C104.465 310.318 104.511 309.97 104.511 309.601V309.443C104.511 309.079 104.465 308.735 104.374 308.411C104.287 308.083 104.155 307.794 103.978 307.543C103.804 307.288 103.586 307.087 103.321 306.941C103.062 306.796 102.756 306.723 102.405 306.723C102.059 306.723 101.754 306.796 101.489 306.941C101.229 307.087 101.011 307.288 100.833 307.543C100.66 307.794 100.53 308.083 100.443 308.411C100.357 308.735 100.313 309.079 100.313 309.443ZM112.03 311.781V302.717H113.302V313.217H112.14L112.03 311.781ZM107.054 309.601V309.457C107.054 308.892 107.122 308.379 107.259 307.919C107.4 307.454 107.598 307.055 107.854 306.723C108.113 306.39 108.421 306.135 108.776 305.957C109.136 305.775 109.537 305.684 109.979 305.684C110.444 305.684 110.85 305.766 111.196 305.93C111.547 306.089 111.843 306.324 112.085 306.634C112.331 306.939 112.525 307.308 112.666 307.741C112.807 308.174 112.905 308.664 112.96 309.211V309.84C112.91 310.382 112.812 310.87 112.666 311.303C112.525 311.736 112.331 312.105 112.085 312.41C111.843 312.715 111.547 312.95 111.196 313.114C110.845 313.274 110.435 313.354 109.966 313.354C109.533 313.354 109.136 313.26 108.776 313.073C108.421 312.886 108.113 312.624 107.854 312.287C107.598 311.95 107.4 311.553 107.259 311.098C107.122 310.637 107.054 310.138 107.054 309.601ZM108.325 309.457V309.601C108.325 309.97 108.362 310.316 108.435 310.64C108.512 310.963 108.631 311.248 108.79 311.494C108.95 311.74 109.152 311.934 109.398 312.075C109.645 312.212 109.938 312.28 110.28 312.28C110.7 312.28 111.044 312.191 111.312 312.014C111.586 311.836 111.805 311.601 111.969 311.31C112.133 311.018 112.26 310.701 112.352 310.359V308.712C112.297 308.461 112.217 308.22 112.112 307.987C112.012 307.75 111.88 307.541 111.716 307.358C111.556 307.172 111.358 307.023 111.121 306.914C110.889 306.805 110.613 306.75 110.294 306.75C109.948 306.75 109.649 306.823 109.398 306.969C109.152 307.11 108.95 307.306 108.79 307.557C108.631 307.803 108.512 308.09 108.435 308.418C108.362 308.742 108.325 309.088 108.325 309.457ZM118.34 313.354C117.825 313.354 117.358 313.267 116.938 313.094C116.524 312.916 116.166 312.668 115.865 312.349C115.569 312.03 115.341 311.651 115.182 311.214C115.022 310.776 114.942 310.298 114.942 309.778V309.491C114.942 308.89 115.031 308.354 115.209 307.885C115.387 307.411 115.628 307.01 115.934 306.682C116.239 306.354 116.585 306.105 116.973 305.937C117.36 305.768 117.761 305.684 118.176 305.684C118.704 305.684 119.16 305.775 119.543 305.957C119.93 306.139 120.247 306.395 120.493 306.723C120.739 307.046 120.922 307.429 121.04 307.871C121.159 308.309 121.218 308.787 121.218 309.307V309.874H115.694V308.842H119.953V308.746C119.935 308.418 119.867 308.099 119.748 307.789C119.634 307.479 119.452 307.224 119.201 307.023C118.951 306.823 118.609 306.723 118.176 306.723C117.889 306.723 117.624 306.784 117.383 306.907C117.141 307.026 116.934 307.203 116.761 307.44C116.588 307.677 116.453 307.967 116.357 308.309C116.262 308.65 116.214 309.045 116.214 309.491V309.778C116.214 310.129 116.262 310.46 116.357 310.77C116.458 311.075 116.601 311.344 116.788 311.576C116.979 311.809 117.21 311.991 117.479 312.123C117.752 312.255 118.062 312.321 118.408 312.321C118.855 312.321 119.233 312.23 119.543 312.048C119.853 311.866 120.124 311.622 120.356 311.316L121.122 311.925C120.963 312.166 120.76 312.396 120.514 312.615C120.268 312.834 119.965 313.012 119.604 313.148C119.249 313.285 118.827 313.354 118.34 313.354Z" fill="white"/>
<g clip-path="url(#clip3_162_1069)">
<path d="M251.142 238.867C251.142 237.34 249.914 236.112 248.387 236.112C246.861 236.112 245.633 237.34 245.633 238.867V279.267C245.633 283.835 249.329 287.531 253.897 287.531H301.643C303.169 287.531 304.397 286.303 304.397 284.777C304.397 283.25 303.169 282.022 301.643 282.022H253.897C252.37 282.022 251.142 280.794 251.142 279.267V238.867ZM282.361 249.885C282.361 251.412 283.589 252.64 285.115 252.64H291.325L280.524 263.44L271.457 254.373C270.378 253.294 268.634 253.294 267.566 254.373L258.384 263.555C257.305 264.634 257.305 266.378 258.384 267.446C259.463 268.513 261.208 268.525 262.275 267.446L269.506 260.215L278.573 269.282C279.652 270.361 281.397 270.361 282.464 269.282L295.204 256.542V262.751C295.204 264.278 296.432 265.506 297.959 265.506C299.485 265.506 300.713 264.278 300.713 262.751V249.897C300.713 248.37 299.485 247.142 297.959 247.142H285.104C283.577 247.142 282.349 248.37 282.349 249.897L282.361 249.885Z" fill="white"/>
</g>
<path d="M214.995 303.264H218.29C219.037 303.264 219.669 303.378 220.184 303.605C220.703 303.833 221.097 304.171 221.366 304.617C221.64 305.059 221.776 305.604 221.776 306.251C221.776 306.707 221.683 307.124 221.496 307.502C221.314 307.876 221.049 308.195 220.703 308.459C220.361 308.719 219.951 308.912 219.473 309.04L219.104 309.184H216.007L215.993 308.11H218.331C218.805 308.11 219.199 308.028 219.514 307.864C219.828 307.696 220.065 307.47 220.225 307.188C220.384 306.905 220.464 306.593 220.464 306.251C220.464 305.868 220.389 305.533 220.238 305.246C220.088 304.959 219.851 304.738 219.527 304.583C219.208 304.424 218.796 304.344 218.29 304.344H216.314V313.217H214.995V303.264ZM220.812 313.217L218.393 308.705L219.767 308.698L222.221 313.135V313.217H220.812ZM226.5 313.354C225.985 313.354 225.518 313.267 225.099 313.094C224.684 312.916 224.326 312.668 224.025 312.349C223.729 312.03 223.501 311.651 223.342 311.214C223.182 310.776 223.103 310.298 223.103 309.778V309.491C223.103 308.89 223.191 308.354 223.369 307.885C223.547 307.411 223.788 307.01 224.094 306.682C224.399 306.354 224.745 306.105 225.133 305.937C225.52 305.768 225.921 305.684 226.336 305.684C226.865 305.684 227.32 305.775 227.703 305.957C228.09 306.139 228.407 306.395 228.653 306.723C228.899 307.046 229.082 307.429 229.2 307.871C229.319 308.309 229.378 308.787 229.378 309.307V309.874H223.854V308.842H228.113V308.746C228.095 308.418 228.027 308.099 227.908 307.789C227.794 307.479 227.612 307.224 227.361 307.023C227.111 306.823 226.769 306.723 226.336 306.723C226.049 306.723 225.785 306.784 225.543 306.907C225.301 307.026 225.094 307.203 224.921 307.44C224.748 307.677 224.613 307.967 224.518 308.309C224.422 308.65 224.374 309.045 224.374 309.491V309.778C224.374 310.129 224.422 310.46 224.518 310.77C224.618 311.075 224.761 311.344 224.948 311.576C225.14 311.809 225.37 311.991 225.639 312.123C225.912 312.255 226.222 312.321 226.568 312.321C227.015 312.321 227.393 312.23 227.703 312.048C228.013 311.866 228.284 311.622 228.517 311.316L229.282 311.925C229.123 312.166 228.92 312.396 228.674 312.615C228.428 312.834 228.125 313.012 227.765 313.148C227.409 313.285 226.988 313.354 226.5 313.354ZM232.112 307.29V313.217H230.841V305.82H232.044L232.112 307.29ZM231.853 309.238L231.265 309.218C231.269 308.712 231.335 308.245 231.463 307.816C231.59 307.383 231.78 307.007 232.03 306.688C232.281 306.369 232.593 306.123 232.967 305.95C233.34 305.772 233.773 305.684 234.266 305.684C234.612 305.684 234.931 305.734 235.223 305.834C235.514 305.93 235.767 306.082 235.981 306.292C236.196 306.502 236.362 306.771 236.48 307.099C236.599 307.427 236.658 307.823 236.658 308.288V313.217H235.394V308.35C235.394 307.962 235.327 307.652 235.195 307.42C235.068 307.188 234.885 307.019 234.648 306.914C234.411 306.805 234.133 306.75 233.814 306.75C233.441 306.75 233.129 306.816 232.878 306.948C232.627 307.08 232.427 307.263 232.276 307.495C232.126 307.728 232.017 307.994 231.948 308.295C231.884 308.591 231.853 308.906 231.853 309.238ZM236.645 308.541L235.797 308.801C235.801 308.395 235.868 308.006 235.995 307.632C236.127 307.258 236.316 306.925 236.562 306.634C236.813 306.342 237.121 306.112 237.485 305.943C237.85 305.77 238.267 305.684 238.736 305.684C239.133 305.684 239.484 305.736 239.789 305.841C240.099 305.946 240.359 306.107 240.568 306.326C240.783 306.54 240.944 306.816 241.054 307.153C241.163 307.491 241.218 307.892 241.218 308.356V313.217H239.946V308.343C239.946 307.928 239.88 307.607 239.748 307.379C239.62 307.146 239.438 306.985 239.201 306.894C238.969 306.798 238.691 306.75 238.367 306.75C238.089 306.75 237.843 306.798 237.629 306.894C237.415 306.989 237.235 307.121 237.089 307.29C236.943 307.454 236.831 307.643 236.754 307.857C236.681 308.072 236.645 308.299 236.645 308.541ZM247.493 311.952V308.145C247.493 307.853 247.434 307.6 247.315 307.386C247.201 307.167 247.028 306.998 246.796 306.88C246.563 306.761 246.276 306.702 245.935 306.702C245.616 306.702 245.335 306.757 245.094 306.866C244.857 306.976 244.67 307.119 244.533 307.297C244.401 307.475 244.335 307.666 244.335 307.871H243.07C243.07 307.607 243.139 307.345 243.275 307.085C243.412 306.825 243.608 306.59 243.863 306.381C244.123 306.167 244.433 305.998 244.793 305.875C245.158 305.747 245.563 305.684 246.01 305.684C246.548 305.684 247.021 305.775 247.432 305.957C247.846 306.139 248.17 306.415 248.402 306.784C248.639 307.149 248.758 307.607 248.758 308.158V311.604C248.758 311.85 248.778 312.112 248.819 312.39C248.865 312.668 248.931 312.907 249.018 313.107V313.217H247.698C247.634 313.071 247.584 312.877 247.548 312.636C247.511 312.39 247.493 312.162 247.493 311.952ZM247.712 308.732L247.726 309.621H246.447C246.087 309.621 245.766 309.651 245.483 309.71C245.201 309.765 244.964 309.849 244.772 309.963C244.581 310.077 244.435 310.22 244.335 310.394C244.235 310.562 244.185 310.76 244.185 310.988C244.185 311.221 244.237 311.433 244.342 311.624C244.447 311.815 244.604 311.968 244.813 312.082C245.028 312.191 245.29 312.246 245.6 312.246C245.987 312.246 246.329 312.164 246.625 312C246.921 311.836 247.156 311.635 247.329 311.398C247.507 311.161 247.603 310.931 247.616 310.708L248.156 311.316C248.124 311.508 248.038 311.72 247.896 311.952C247.755 312.185 247.566 312.408 247.329 312.622C247.097 312.832 246.819 313.007 246.495 313.148C246.176 313.285 245.816 313.354 245.415 313.354C244.914 313.354 244.474 313.256 244.096 313.06C243.722 312.864 243.43 312.602 243.221 312.273C243.016 311.941 242.913 311.569 242.913 311.159C242.913 310.763 242.991 310.414 243.146 310.113C243.3 309.808 243.524 309.555 243.815 309.354C244.107 309.149 244.458 308.994 244.868 308.89C245.278 308.785 245.736 308.732 246.242 308.732H247.712ZM252.012 306.982V313.217H250.747V305.82H251.978L252.012 306.982ZM254.322 305.779L254.315 306.955C254.211 306.932 254.11 306.919 254.015 306.914C253.924 306.905 253.819 306.9 253.7 306.9C253.409 306.9 253.151 306.946 252.928 307.037C252.704 307.128 252.515 307.256 252.36 307.42C252.205 307.584 252.082 307.78 251.991 308.008C251.905 308.231 251.848 308.477 251.82 308.746L251.465 308.951C251.465 308.505 251.508 308.085 251.595 307.693C251.686 307.301 251.825 306.955 252.012 306.654C252.199 306.349 252.436 306.112 252.723 305.943C253.014 305.77 253.361 305.684 253.762 305.684C253.853 305.684 253.958 305.695 254.076 305.718C254.195 305.736 254.277 305.757 254.322 305.779ZM256.763 302.717V313.217H255.491V302.717H256.763ZM261.281 305.82L258.055 309.272L256.25 311.146L256.147 309.799L257.439 308.254L259.736 305.82H261.281ZM260.126 313.217L257.487 309.689L258.144 308.562L261.616 313.217H260.126ZM266.948 311.952V308.145C266.948 307.853 266.889 307.6 266.771 307.386C266.657 307.167 266.483 306.998 266.251 306.88C266.019 306.761 265.731 306.702 265.39 306.702C265.071 306.702 264.79 306.757 264.549 306.866C264.312 306.976 264.125 307.119 263.988 307.297C263.856 307.475 263.79 307.666 263.79 307.871H262.525C262.525 307.607 262.594 307.345 262.73 307.085C262.867 306.825 263.063 306.59 263.318 306.381C263.578 306.167 263.888 305.998 264.248 305.875C264.613 305.747 265.018 305.684 265.465 305.684C266.003 305.684 266.477 305.775 266.887 305.957C267.301 306.139 267.625 306.415 267.857 306.784C268.094 307.149 268.213 307.607 268.213 308.158V311.604C268.213 311.85 268.233 312.112 268.274 312.39C268.32 312.668 268.386 312.907 268.473 313.107V313.217H267.153C267.09 313.071 267.039 312.877 267.003 312.636C266.966 312.39 266.948 312.162 266.948 311.952ZM267.167 308.732L267.181 309.621H265.902C265.542 309.621 265.221 309.651 264.938 309.71C264.656 309.765 264.419 309.849 264.228 309.963C264.036 310.077 263.89 310.22 263.79 310.394C263.69 310.562 263.64 310.76 263.64 310.988C263.64 311.221 263.692 311.433 263.797 311.624C263.902 311.815 264.059 311.968 264.269 312.082C264.483 312.191 264.745 312.246 265.055 312.246C265.442 312.246 265.784 312.164 266.08 312C266.376 311.836 266.611 311.635 266.784 311.398C266.962 311.161 267.058 310.931 267.071 310.708L267.611 311.316C267.579 311.508 267.493 311.72 267.352 311.952C267.21 312.185 267.021 312.408 266.784 312.622C266.552 312.832 266.274 313.007 265.95 313.148C265.631 313.285 265.271 313.354 264.87 313.354C264.369 313.354 263.929 313.256 263.551 313.06C263.177 312.864 262.885 312.602 262.676 312.273C262.471 311.941 262.368 311.569 262.368 311.159C262.368 310.763 262.446 310.414 262.601 310.113C262.756 309.808 262.979 309.555 263.271 309.354C263.562 309.149 263.913 308.994 264.323 308.89C264.733 308.785 265.191 308.732 265.697 308.732H267.167ZM270.195 302.717H271.467V311.781L271.357 313.217H270.195V302.717ZM276.464 309.457V309.601C276.464 310.138 276.4 310.637 276.272 311.098C276.145 311.553 275.958 311.95 275.712 312.287C275.466 312.624 275.165 312.886 274.81 313.073C274.454 313.26 274.046 313.354 273.586 313.354C273.117 313.354 272.704 313.274 272.349 313.114C271.998 312.95 271.701 312.715 271.46 312.41C271.218 312.105 271.025 311.736 270.879 311.303C270.738 310.87 270.64 310.382 270.585 309.84V309.211C270.64 308.664 270.738 308.174 270.879 307.741C271.025 307.308 271.218 306.939 271.46 306.634C271.701 306.324 271.998 306.089 272.349 305.93C272.7 305.766 273.107 305.684 273.572 305.684C274.037 305.684 274.45 305.775 274.81 305.957C275.17 306.135 275.47 306.39 275.712 306.723C275.958 307.055 276.145 307.454 276.272 307.919C276.4 308.379 276.464 308.892 276.464 309.457ZM275.192 309.601V309.457C275.192 309.088 275.158 308.742 275.09 308.418C275.021 308.09 274.912 307.803 274.762 307.557C274.611 307.306 274.413 307.11 274.167 306.969C273.921 306.823 273.618 306.75 273.258 306.75C272.939 306.75 272.661 306.805 272.424 306.914C272.191 307.023 271.993 307.172 271.829 307.358C271.665 307.541 271.531 307.75 271.426 307.987C271.326 308.22 271.25 308.461 271.2 308.712V310.359C271.273 310.678 271.392 310.986 271.556 311.282C271.724 311.574 271.948 311.813 272.226 312C272.508 312.187 272.857 312.28 273.271 312.28C273.613 312.28 273.905 312.212 274.146 312.075C274.393 311.934 274.591 311.74 274.741 311.494C274.896 311.248 275.01 310.963 275.083 310.64C275.156 310.316 275.192 309.97 275.192 309.601ZM279.438 302.717V313.217H278.166V302.717H279.438ZM284.537 313.354C284.022 313.354 283.555 313.267 283.136 313.094C282.721 312.916 282.363 312.668 282.062 312.349C281.766 312.03 281.538 311.651 281.379 311.214C281.219 310.776 281.14 310.298 281.14 309.778V309.491C281.14 308.89 281.229 308.354 281.406 307.885C281.584 307.411 281.826 307.01 282.131 306.682C282.436 306.354 282.783 306.105 283.17 305.937C283.557 305.768 283.958 305.684 284.373 305.684C284.902 305.684 285.357 305.775 285.74 305.957C286.128 306.139 286.444 306.395 286.69 306.723C286.937 307.046 287.119 307.429 287.237 307.871C287.356 308.309 287.415 308.787 287.415 309.307V309.874H281.892V308.842H286.15V308.746C286.132 308.418 286.064 308.099 285.945 307.789C285.831 307.479 285.649 307.224 285.398 307.023C285.148 306.823 284.806 306.723 284.373 306.723C284.086 306.723 283.822 306.784 283.58 306.907C283.339 307.026 283.131 307.203 282.958 307.44C282.785 307.677 282.65 307.967 282.555 308.309C282.459 308.65 282.411 309.045 282.411 309.491V309.778C282.411 310.129 282.459 310.46 282.555 310.77C282.655 311.075 282.799 311.344 282.985 311.576C283.177 311.809 283.407 311.991 283.676 312.123C283.949 312.255 284.259 312.321 284.605 312.321C285.052 312.321 285.43 312.23 285.74 312.048C286.05 311.866 286.321 311.622 286.554 311.316L287.319 311.925C287.16 312.166 286.957 312.396 286.711 312.615C286.465 312.834 286.162 313.012 285.802 313.148C285.446 313.285 285.025 313.354 284.537 313.354ZM299.911 308.261V311.904C299.788 312.087 299.592 312.292 299.323 312.52C299.054 312.743 298.683 312.939 298.209 313.107C297.74 313.271 297.133 313.354 296.391 313.354C295.785 313.354 295.226 313.249 294.716 313.039C294.21 312.825 293.77 312.515 293.396 312.109C293.027 311.699 292.74 311.202 292.535 310.619C292.335 310.031 292.234 309.366 292.234 308.623V307.851C292.234 307.108 292.321 306.445 292.494 305.861C292.672 305.278 292.932 304.784 293.273 304.378C293.615 303.968 294.035 303.658 294.531 303.448C295.028 303.234 295.598 303.127 296.24 303.127C297.001 303.127 297.637 303.259 298.147 303.523C298.662 303.783 299.063 304.143 299.351 304.604C299.642 305.064 299.829 305.588 299.911 306.176H298.592C298.533 305.816 298.414 305.488 298.236 305.191C298.063 304.895 297.815 304.658 297.491 304.48C297.168 304.298 296.751 304.207 296.24 304.207C295.78 304.207 295.381 304.291 295.044 304.46C294.707 304.629 294.429 304.87 294.21 305.185C293.991 305.499 293.827 305.88 293.718 306.326C293.613 306.773 293.561 307.276 293.561 307.837V308.623C293.561 309.197 293.627 309.71 293.759 310.161C293.896 310.612 294.089 310.997 294.34 311.316C294.59 311.631 294.889 311.87 295.235 312.034C295.586 312.198 295.974 312.28 296.397 312.28C296.867 312.28 297.247 312.242 297.539 312.164C297.831 312.082 298.059 311.986 298.223 311.877C298.387 311.763 298.512 311.656 298.599 311.556V309.327H296.295V308.261H299.911ZM303.172 306.982V313.217H301.907V305.82H303.138L303.172 306.982ZM305.482 305.779L305.476 306.955C305.371 306.932 305.271 306.919 305.175 306.914C305.084 306.905 304.979 306.9 304.86 306.9C304.569 306.9 304.311 306.946 304.088 307.037C303.865 307.128 303.675 307.256 303.521 307.42C303.366 307.584 303.243 307.78 303.151 308.008C303.065 308.231 303.008 308.477 302.98 308.746L302.625 308.951C302.625 308.505 302.668 308.085 302.755 307.693C302.846 307.301 302.985 306.955 303.172 306.654C303.359 306.349 303.596 306.112 303.883 305.943C304.174 305.77 304.521 305.684 304.922 305.684C305.013 305.684 305.118 305.695 305.236 305.718C305.355 305.736 305.437 305.757 305.482 305.779ZM306.18 309.601V309.443C306.18 308.91 306.257 308.416 306.412 307.96C306.567 307.5 306.79 307.101 307.082 306.764C307.374 306.422 307.727 306.158 308.142 305.971C308.556 305.779 309.021 305.684 309.536 305.684C310.056 305.684 310.523 305.779 310.938 305.971C311.357 306.158 311.712 306.422 312.004 306.764C312.3 307.101 312.526 307.5 312.681 307.96C312.836 308.416 312.913 308.91 312.913 309.443V309.601C312.913 310.134 312.836 310.628 312.681 311.084C312.526 311.54 312.3 311.938 312.004 312.28C311.712 312.618 311.359 312.882 310.944 313.073C310.534 313.26 310.069 313.354 309.55 313.354C309.03 313.354 308.563 313.26 308.148 313.073C307.734 312.882 307.378 312.618 307.082 312.28C306.79 311.938 306.567 311.54 306.412 311.084C306.257 310.628 306.18 310.134 306.18 309.601ZM307.444 309.443V309.601C307.444 309.97 307.488 310.318 307.574 310.646C307.661 310.97 307.791 311.257 307.964 311.508C308.142 311.758 308.363 311.957 308.627 312.103C308.891 312.244 309.199 312.314 309.55 312.314C309.896 312.314 310.199 312.244 310.459 312.103C310.723 311.957 310.942 311.758 311.115 311.508C311.288 311.257 311.418 310.97 311.505 310.646C311.596 310.318 311.642 309.97 311.642 309.601V309.443C311.642 309.079 311.596 308.735 311.505 308.411C311.418 308.083 311.286 307.794 311.108 307.543C310.935 307.288 310.716 307.087 310.452 306.941C310.192 306.796 309.887 306.723 309.536 306.723C309.19 306.723 308.884 306.796 308.62 306.941C308.36 307.087 308.142 307.288 307.964 307.543C307.791 307.794 307.661 308.083 307.574 308.411C307.488 308.735 307.444 309.079 307.444 309.443ZM316.372 311.904L318.272 305.82H319.106L318.942 307.03L317.008 313.217H316.194L316.372 311.904ZM315.094 305.82L316.714 311.973L316.83 313.217H315.976L313.829 305.82H315.094ZM320.925 311.925L322.47 305.82H323.728L321.581 313.217H320.733L320.925 311.925ZM319.291 305.82L321.15 311.802L321.362 313.217H320.556L318.566 307.017L318.402 305.82H319.291ZM328.123 305.82V306.791H324.124V305.82H328.123ZM325.478 304.022H326.742V311.385C326.742 311.635 326.781 311.825 326.858 311.952C326.936 312.08 327.036 312.164 327.159 312.205C327.282 312.246 327.414 312.267 327.556 312.267C327.66 312.267 327.77 312.257 327.884 312.239C328.002 312.216 328.091 312.198 328.15 312.185L328.157 313.217C328.057 313.249 327.925 313.278 327.761 313.306C327.601 313.338 327.408 313.354 327.18 313.354C326.87 313.354 326.585 313.292 326.325 313.169C326.065 313.046 325.858 312.841 325.703 312.554C325.553 312.262 325.478 311.87 325.478 311.378V304.022ZM330.871 302.717V313.217H329.606V302.717H330.871ZM330.57 309.238L330.044 309.218C330.049 308.712 330.124 308.245 330.27 307.816C330.415 307.383 330.62 307.007 330.885 306.688C331.149 306.369 331.464 306.123 331.828 305.95C332.197 305.772 332.605 305.684 333.052 305.684C333.416 305.684 333.744 305.734 334.036 305.834C334.328 305.93 334.576 306.085 334.781 306.299C334.991 306.513 335.15 306.791 335.26 307.133C335.369 307.47 335.424 307.882 335.424 308.37V313.217H334.152V308.356C334.152 307.969 334.095 307.659 333.981 307.427C333.868 307.19 333.701 307.019 333.482 306.914C333.264 306.805 332.995 306.75 332.676 306.75C332.361 306.75 332.074 306.816 331.814 306.948C331.559 307.08 331.338 307.263 331.151 307.495C330.969 307.728 330.826 307.994 330.721 308.295C330.62 308.591 330.57 308.906 330.57 309.238Z" fill="white"/>
<defs>
<clipPath id="clip0_162_1069">
<rect width="44.0734" height="58.7645" fill="white" transform="translate(55.2422 34.9906)"/>
</clipPath>
<clipPath id="clip1_162_1069">
<rect width="66.1101" height="58.7645" fill="white" transform="translate(242.109 34.9906)"/>
</clipPath>
<clipPath id="clip2_162_1069">
<rect width="73.4557" height="58.7645" fill="white" transform="translate(41.1328 232.439)"/>
</clipPath>
<clipPath id="clip3_162_1069">
<rect width="58.7645" height="58.7645" fill="white" transform="translate(245.633 232.439)"/>
</clipPath>
</defs>
</svg>
