<?xml version="1.0" encoding="utf-8"?>
<!-- Generator: Adobe Illustrator 25.0.1, SVG Export Plug-In . SVG Version: 6.00 Build 0)  -->
<svg version="1.1" id="Layer_1" xmlns="http://www.w3.org/2000/svg" xmlns:xlink="http://www.w3.org/1999/xlink" x="0px" y="0px"
	 viewBox="0 0 320 100" style="enable-background:new 0 0 320 100;" xml:space="preserve">
<g>
	<polygon class="st0" points="45.8,97.1 84.9,74.6 84.9,29.7 45.8,52.2 	"/>
	<polygon class="st0" points="44.9,2.9 4.9,25.9 44,48.4 83,25.9 	"/>
	<g>
		<polygon class="st0" points="20.7,74.6 20.7,71.6 14.5,68 14.5,49.6 20.7,53.1 20.7,50.1 20.7,39.9 3,29.7 3,74.6 20.7,84.8 		"/>
		<polygon class="st0" points="24.3,42 24.3,52.2 24.3,55.2 30.6,58.8 30.6,77.2 24.3,73.6 24.3,76.7 24.3,86.9 42.1,97.1 
			42.1,52.2 		"/>
	</g>
</g>
<g>
	<g>
		<path class="st0" d="M118.8,34.2L118.8,34.2c2.6,0.9,3.9,3.3,3.9,6.8c0,5.2-1.6,8.6-7.8,8.6h-8.5V20.1h7.6c5.6,0,7.8,3.3,7.8,7.9
			C121.8,31.3,120.9,33.3,118.8,34.2z M112.2,32.3h2c1.6,0,2-1,2-3.5c0-2.6-0.5-3.3-2-3.3h-2V32.3z M112.2,44.3h2.4
			c1.5,0,2.1-0.8,2.1-3.7c0-3.3-0.5-3.7-2.1-3.7h-2.4V44.3z"/>
		<path class="st0" d="M150.6,29.2v11.4c0,6-2.9,9.5-8.5,9.5s-8.4-3.5-8.4-9.5V29.2c0-6,2.9-9.5,8.4-9.5
			C147.7,19.7,150.6,23.2,150.6,29.2z M144.6,29.2c0-3.2-0.7-4.2-2.4-4.2c-1.8,0-2.5,0.9-2.5,4.2v11.4c0,3.3,0.7,4.3,2.4,4.3
			c1.8,0,2.5-1,2.5-4.3V29.2z"/>
		<path class="st0" d="M165.6,34.5l-5.4-14.4h6.4l2.9,10.4h0.1l2.9-10.4h6.3l-5.4,14.7l5.6,14.9h-6.4L169.5,39h-0.1l-3,10.7h-6.3
			L165.6,34.5z"/>
		<path class="st0" d="M195.9,20.1v11.6h4.5V20.1h6v29.5h-6V37.2h-4.5v12.4h-6V20.1H195.9z"/>
		<path class="st0" d="M235.2,29.2v11.4c0,6-2.9,9.5-8.5,9.5s-8.4-3.5-8.4-9.5V29.2c0-6,2.9-9.5,8.4-9.5
			C232.3,19.7,235.2,23.2,235.2,29.2z M229.3,29.2c0-3.2-0.7-4.2-2.4-4.2c-1.8,0-2.5,0.9-2.5,4.2v11.4c0,3.3,0.7,4.3,2.4,4.3
			c1.8,0,2.5-1,2.5-4.3V29.2z"/>
		<path class="st0" d="M263.8,20.1v20.5c0,6.1-3.1,9.4-8.4,9.4c-5.4,0-8.5-3.2-8.5-9.2V20.1h6v20.8c0,2.6,0.9,3.5,2.5,3.5
			s2.4-0.9,2.4-3.5V20.1H263.8z"/>
		<path class="st0" d="M290.1,26.6l-4.3,1.6c-0.5-2.5-1.4-3.3-2.8-3.3c-1.3,0-2.1,0.7-2.1,2.4c0,4.6,9.3,5.6,9.3,14.3
			c0,5.4-3,8.4-7.7,8.4c-3.8,0-7.2-2.7-7.9-7.3l4.6-1.4c0.6,2.8,1.8,3.7,3.1,3.7c1.5,0,2.2-0.7,2.2-2.4c0-5.7-9.6-6.3-9.6-14.8
			c0-4.5,2.8-8,7.4-8C286.7,19.7,289,22.4,290.1,26.6z"/>
		<path class="st0" d="M315.1,20.1v5.5h-7.6v6.3h5.6v4.8h-5.6v7.4h7.8v5.5h-13.8V20.1H315.1z"/>
	</g>
	<g>
		<path class="st0" d="M113.5,66.2l-1.1,0.3c-0.3-1.6-0.9-2.5-2.1-2.5c-1.5,0-2.2,1.2-2.2,3.4v8.8c0,1.9,0.7,3.2,2.1,3.2
			c1.3,0,1.9-0.6,2.2-2.7l1.1,0.3c-0.3,2.8-1.4,3.7-3.3,3.7c-2.2,0-3.5-1.8-3.5-4.5v-8.8c0-2.9,1.3-4.6,3.5-4.6
			C112,62.8,113.2,64.2,113.5,66.2z"/>
		<path class="st0" d="M136.6,67.2v9c0,2.9-1.2,4.5-3.7,4.5s-3.7-1.6-3.7-4.4v-9.1c0-2.8,1.3-4.4,3.7-4.4
			C135.4,62.8,136.6,64.4,136.6,67.2z M135.2,67.2c0-2.2-0.7-3.2-2.3-3.2s-2.3,1-2.3,3.2v9.1c0,2.2,0.7,3.2,2.3,3.2s2.3-1,2.3-3.2
			V67.2z"/>
		<path class="st0" d="M154.1,63l4.8,13.2l0,0V63h1.2v17.4h-0.9l-5-13.5l0,0v13.5H153V63H154.1z"/>
		<path class="st0" d="M182.8,66.1l-1.1,0.3c-0.3-1.6-1-2.5-2.2-2.5c-1.3,0-1.9,1-1.9,2.6c0,4.2,5.3,4.6,5.3,9.6
			c0,2.9-1.3,4.5-3.4,4.5c-1.8,0-3.1-1.2-3.4-3.8l1.2-0.3c0.3,2,1.1,2.8,2.3,2.8c1.3,0,2-1,2-3c0-4.4-5.4-4.6-5.4-9.7
			c0-2.4,1.2-4,3.3-4C181.4,62.8,182.4,64.1,182.8,66.1z"/>
		<path class="st0" d="M206.1,63v13.5c0,2.8-1.3,4.2-3.7,4.2s-3.7-1.4-3.7-4.2V63h1.4v13.5c0,2.2,1,2.9,2.3,2.9
			c1.5,0,2.3-0.8,2.3-2.9V63H206.1z"/>
		<path class="st0" d="M224.1,63v16.1h4.6v1.3h-6V63H224.1z"/>
		<path class="st0" d="M249.2,63v1.3h-2.8v16.1H245V64.3h-2.8V63H249.2z"/>
		<path class="st0" d="M266.6,63v17.4h-1.4V63H266.6z"/>
		<path class="st0" d="M284.8,63l4.8,13.2l0,0V63h1.2v17.4h-0.9L285,67l0,0v13.5h-1.2V63H284.8z"/>
		<path class="st0" d="M314.6,66.3l-1.1,0.3c-0.4-1.8-1.1-2.5-2.3-2.5c-1.7,0-2.4,1.3-2.4,3.6v8.4c0,2.2,0.8,3.3,2.4,3.3
			c1,0,1.8-0.4,2.3-1.9v-4.2h-1.7v-1.1h3v8.2h-1.2v-1.3l0,0c-0.6,1.1-1.5,1.6-2.6,1.6c-2.2,0-3.5-1.7-3.5-4.6v-8.5
			c0-2.9,1.2-4.9,3.7-4.9C312.9,62.8,314.2,64.1,314.6,66.3z"/>
	</g>
</g>
</svg>
